<svg xmlns="http://www.w3.org/2000/svg" xmlns:xlink="http://www.w3.org/1999/xlink" width="500" zoomAndPan="magnify" viewBox="0 0 375 374.999991" height="500" preserveAspectRatio="xMidYMid meet" version="1.0"><defs><g/><clipPath id="aeb37c1038"><path d="M 102.28125 114.867188 L 256.640625 114.867188 L 256.640625 216.867188 L 102.28125 216.867188 Z M 102.28125 114.867188 " clip-rule="nonzero"/></clipPath><clipPath id="955d0378f1"><path d="M 241.261719 194.929688 C 242.472656 194.183594 243.59375 193.386719 244.632812 192.492188 C 245.660156 191.589844 246.601562 190.628906 247.4375 189.617188 C 250.417969 185.964844 252.046875 180.675781 250.925781 176.019531 C 250.671875 174.902344 250.261719 173.828125 249.707031 172.828125 C 249.164062 171.824219 248.507812 170.878906 247.722656 170.035156 C 244.636719 166.601562 240.011719 164.652344 235.257812 164.332031 C 230.476562 163.945312 225.550781 165.042969 220.96875 167.054688 C 220.386719 167.277344 219.824219 167.578125 219.257812 167.839844 C 218.992188 167.972656 218.644531 168.128906 218.449219 168.234375 L 217.523438 168.722656 C 216.929688 169.050781 216.453125 169.316406 215.882812 169.65625 C 215.332031 169.980469 214.785156 170.320312 214.242188 170.667969 C 212.066406 172.050781 209.980469 173.605469 207.929688 175.242188 C 203.832031 178.523438 199.992188 182.273438 196.132812 186.167969 C 192.253906 190.050781 188.375 194.109375 184.160156 198.054688 C 179.929688 201.972656 175.328125 205.785156 170.082031 208.976562 C 164.863281 212.183594 158.90625 214.59375 152.714844 215.828125 C 149.621094 216.4375 146.480469 216.785156 143.359375 216.847656 L 142.777344 216.859375 L 142.339844 216.863281 L 141.039062 216.835938 C 140.730469 216.839844 140.234375 216.800781 139.808594 216.777344 C 139.378906 216.746094 138.921875 216.726562 138.507812 216.683594 C 136.882812 216.515625 135.253906 216.296875 133.652344 215.9375 C 127.242188 214.566406 121.105469 211.640625 116.089844 207.332031 C 111.054688 203.054688 107.117188 197.460938 104.824219 191.261719 C 103.648438 188.171875 102.933594 184.929688 102.59375 181.675781 L 102.511719 180.90625 L 102.417969 179.347656 L 102.402344 179.085938 L 102.394531 178.761719 L 102.386719 178.101562 L 102.375 176.78125 C 102.421875 175.136719 102.53125 173.503906 102.769531 171.875 C 103.242188 168.632812 104.089844 165.429688 105.359375 162.40625 C 106.636719 159.390625 108.28125 156.535156 110.238281 153.925781 C 112.199219 151.320312 114.496094 148.980469 117.023438 146.9375 C 119.558594 144.898438 122.367188 143.222656 125.316406 141.882812 C 128.269531 140.542969 131.390625 139.589844 134.566406 139.046875 C 135.359375 138.898438 136.160156 138.789062 136.960938 138.714844 C 137.757812 138.613281 138.5625 138.578125 139.363281 138.535156 C 140.164062 138.476562 140.96875 138.515625 141.769531 138.503906 L 142.203125 138.503906 L 142.464844 138.519531 L 142.984375 138.550781 L 144.027344 138.609375 L 139.34375 141.425781 C 141.394531 137.582031 143.90625 134.003906 146.855469 130.839844 C 149.796875 127.671875 153.113281 124.875 156.734375 122.570312 C 160.359375 120.277344 164.257812 118.453125 168.308594 117.152344 C 172.359375 115.855469 176.570312 115.136719 180.761719 114.925781 C 182.859375 114.828125 184.960938 114.84375 187.035156 115.054688 L 188.515625 115.1875 L 190.109375 115.40625 C 191.183594 115.53125 192.195312 115.746094 193.210938 115.957031 C 195.242188 116.382812 197.230469 116.976562 199.175781 117.652344 C 200.152344 117.980469 201.09375 118.40625 202.050781 118.777344 C 202.988281 119.191406 203.90625 119.652344 204.824219 120.097656 C 205.71875 120.601562 206.621094 121.070312 207.492188 121.601562 C 208.34375 122.160156 209.230469 122.65625 210.046875 123.261719 C 210.867188 123.859375 211.707031 124.421875 212.480469 125.074219 L 213.65625 126.019531 C 214.042969 126.34375 214.40625 126.691406 214.785156 127.023438 C 215.539062 127.6875 216.242188 128.40625 216.929688 129.132812 C 217.640625 129.832031 218.273438 130.609375 218.925781 131.359375 C 219.589844 132.097656 220.15625 132.921875 220.773438 133.695312 C 221.351562 134.496094 221.882812 135.335938 222.433594 136.148438 C 221.066406 134.722656 219.675781 133.34375 218.195312 132.078125 C 217.441406 131.460938 216.71875 130.816406 215.921875 130.257812 L 214.757812 129.390625 C 214.367188 129.109375 213.953125 128.859375 213.554688 128.585938 C 213.152344 128.320312 212.761719 128.042969 212.355469 127.789062 L 211.117188 127.050781 C 210.308594 126.539062 209.441406 126.121094 208.597656 125.675781 C 207.761719 125.214844 206.867188 124.871094 206.011719 124.464844 C 205.140625 124.089844 204.242188 123.777344 203.363281 123.429688 L 200.667969 122.574219 C 199.753906 122.347656 198.859375 122.066406 197.9375 121.878906 C 196.105469 121.480469 194.265625 121.171875 192.410156 121.015625 C 191.484375 120.929688 190.558594 120.835938 189.667969 120.835938 L 188.328125 120.792969 L 186.863281 120.824219 C 185.011719 120.828125 183.179688 121.046875 181.367188 121.300781 C 177.746094 121.839844 174.21875 122.820312 170.894531 124.234375 C 167.566406 125.628906 164.433594 127.4375 161.59375 129.597656 C 158.738281 131.738281 156.171875 134.234375 153.96875 136.996094 C 151.773438 139.757812 149.890625 142.753906 148.4375 145.9375 L 147.15625 148.746094 L 143.753906 148.75 L 142.1875 148.75 L 141.929688 148.753906 C 142.183594 148.757812 141.96875 148.753906 142.011719 148.757812 L 141.953125 148.761719 L 141.84375 148.765625 C 141.253906 148.820312 140.660156 148.816406 140.078125 148.902344 C 139.492188 148.96875 138.910156 149.023438 138.332031 149.140625 C 137.75 149.222656 137.179688 149.347656 136.609375 149.476562 C 134.324219 149.980469 132.117188 150.773438 130.050781 151.835938 C 125.910156 153.941406 122.332031 157.078125 119.679688 160.824219 C 118.367188 162.710938 117.285156 164.742188 116.46875 166.871094 C 115.675781 169.007812 115.105469 171.222656 114.835938 173.480469 C 114.6875 174.605469 114.644531 175.75 114.628906 176.882812 L 114.652344 177.648438 L 114.660156 178.027344 L 114.664062 178.222656 L 114.683594 178.480469 L 114.765625 179.519531 L 114.808594 180.039062 C 114.824219 180.210938 114.796875 179.882812 114.800781 179.933594 L 114.808594 179.988281 L 114.824219 180.09375 L 114.851562 180.304688 C 115.132812 182.570312 115.683594 184.777344 116.488281 186.882812 C 118.078125 191.097656 120.773438 194.871094 124.230469 197.773438 C 127.671875 200.695312 131.84375 202.773438 136.304688 203.746094 C 137.414062 204.003906 138.550781 204.160156 139.6875 204.289062 C 139.964844 204.320312 140.207031 204.324219 140.464844 204.347656 C 140.738281 204.367188 140.933594 204.398438 141.320312 204.402344 L 142.363281 204.429688 L 142.625 204.433594 C 142.363281 204.433594 142.585938 204.433594 142.539062 204.433594 L 142.597656 204.433594 L 142.714844 204.429688 L 143.171875 204.425781 C 145.617188 204.425781 148.027344 204.199219 150.402344 203.78125 C 155.148438 202.941406 159.679688 201.167969 164.027344 198.714844 C 168.378906 196.257812 172.503906 193.082031 176.542969 189.582031 C 180.605469 186.105469 184.585938 182.289062 188.734375 178.476562 C 192.898438 174.679688 197.253906 170.886719 202.035156 167.464844 C 204.421875 165.75 206.941406 164.164062 209.558594 162.726562 C 210.210938 162.367188 210.875 162.019531 211.542969 161.6875 C 212.195312 161.355469 212.960938 160.992188 213.601562 160.691406 L 214.554688 160.269531 C 214.984375 160.078125 215.28125 159.964844 215.652344 159.808594 C 216.359375 159.527344 217.050781 159.214844 217.78125 158.976562 C 223.507812 156.886719 229.859375 155.882812 236.164062 156.824219 C 242.417969 157.722656 248.617188 160.855469 252.597656 166.078125 C 253.59375 167.371094 254.414062 168.804688 255.058594 170.3125 C 255.710938 171.8125 256.160156 173.40625 256.382812 175.027344 C 256.617188 176.644531 256.648438 178.292969 256.425781 179.898438 C 256.363281 180.664062 256.125 181.597656 255.945312 182.351562 L 255.636719 183.347656 L 255.527344 183.695312 L 255.402344 183.972656 L 255.148438 184.523438 C 253.765625 187.4375 251.582031 189.753906 249.175781 191.484375 C 247.96875 192.359375 246.683594 193.082031 245.347656 193.644531 C 244.019531 194.210938 242.644531 194.664062 241.261719 194.929688 Z M 241.261719 194.929688 " clip-rule="nonzero"/></clipPath><clipPath id="a13e0e6cbf"><path d="M 241.261719 194.929688 C 242.472656 194.183594 243.59375 193.386719 244.632812 192.492188 C 245.660156 191.589844 246.601562 190.628906 247.4375 189.617188 C 250.417969 185.964844 252.046875 180.675781 250.925781 176.019531 C 250.671875 174.902344 250.261719 173.828125 249.707031 172.828125 C 249.164062 171.824219 248.507812 170.878906 247.722656 170.035156 C 244.636719 166.601562 240.011719 164.652344 235.257812 164.332031 C 230.476562 163.945312 225.550781 165.042969 220.96875 167.054688 C 220.386719 167.277344 219.824219 167.578125 219.257812 167.839844 C 218.992188 167.972656 218.644531 168.128906 218.449219 168.234375 L 217.523438 168.722656 C 216.929688 169.050781 216.453125 169.316406 215.882812 169.65625 C 215.332031 169.980469 214.785156 170.320312 214.242188 170.667969 C 212.066406 172.050781 209.980469 173.605469 207.929688 175.242188 C 203.832031 178.523438 199.992188 182.273438 196.132812 186.167969 C 192.253906 190.050781 188.375 194.109375 184.160156 198.054688 C 179.929688 201.972656 175.328125 205.785156 170.082031 208.976562 C 164.863281 212.183594 158.90625 214.59375 152.714844 215.828125 C 149.621094 216.4375 146.480469 216.785156 143.359375 216.847656 L 142.777344 216.859375 L 142.339844 216.863281 L 141.039062 216.835938 C 140.730469 216.839844 140.234375 216.800781 139.808594 216.777344 C 139.378906 216.746094 138.921875 216.726562 138.507812 216.683594 C 136.882812 216.515625 135.253906 216.296875 133.652344 215.9375 C 127.242188 214.566406 121.105469 211.640625 116.089844 207.332031 C 111.054688 203.054688 107.117188 197.460938 104.824219 191.261719 C 103.648438 188.171875 102.933594 184.929688 102.59375 181.675781 L 102.511719 180.90625 L 102.417969 179.347656 L 102.402344 179.085938 L 102.394531 178.761719 L 102.386719 178.101562 L 102.375 176.78125 C 102.421875 175.136719 102.53125 173.503906 102.769531 171.875 C 103.242188 168.632812 104.089844 165.429688 105.359375 162.40625 C 106.636719 159.390625 108.28125 156.535156 110.238281 153.925781 C 112.199219 151.320312 114.496094 148.980469 117.023438 146.9375 C 119.558594 144.898438 122.367188 143.222656 125.316406 141.882812 C 128.269531 140.542969 131.390625 139.589844 134.566406 139.046875 C 135.359375 138.898438 136.160156 138.789062 136.960938 138.714844 C 137.757812 138.613281 138.5625 138.578125 139.363281 138.535156 C 140.164062 138.476562 140.96875 138.515625 141.769531 138.503906 L 142.203125 138.503906 L 142.464844 138.519531 L 142.984375 138.550781 L 144.027344 138.609375 L 139.34375 141.425781 C 141.394531 137.582031 143.90625 134.003906 146.855469 130.839844 C 149.796875 127.671875 153.113281 124.875 156.734375 122.570312 C 160.359375 120.277344 164.257812 118.453125 168.308594 117.152344 C 172.359375 115.855469 176.570312 115.136719 180.761719 114.925781 C 182.859375 114.828125 184.960938 114.84375 187.035156 115.054688 L 188.515625 115.1875 L 190.109375 115.40625 C 191.183594 115.53125 192.195312 115.746094 193.210938 115.957031 C 195.242188 116.382812 197.230469 116.976562 199.175781 117.652344 C 200.152344 117.980469 201.09375 118.40625 202.050781 118.777344 C 202.988281 119.191406 203.90625 119.652344 204.824219 120.097656 C 205.71875 120.601562 206.621094 121.070312 207.492188 121.601562 C 208.34375 122.160156 209.230469 122.65625 210.046875 123.261719 C 210.867188 123.859375 211.707031 124.421875 212.480469 125.074219 L 213.65625 126.019531 C 214.042969 126.34375 214.40625 126.691406 214.785156 127.023438 C 215.539062 127.6875 216.242188 128.40625 216.929688 129.132812 C 217.640625 129.832031 218.273438 130.609375 218.925781 131.359375 C 219.589844 132.097656 220.15625 132.921875 220.773438 133.695312 C 221.351562 134.496094 221.882812 135.335938 222.433594 136.148438 C 221.066406 134.722656 219.675781 133.34375 218.195312 132.078125 C 217.441406 131.460938 216.71875 130.816406 215.921875 130.257812 L 214.757812 129.390625 C 214.367188 129.109375 213.953125 128.859375 213.554688 128.585938 C 213.152344 128.320312 212.761719 128.042969 212.355469 127.789062 L 211.117188 127.050781 C 210.308594 126.539062 209.441406 126.121094 208.597656 125.675781 C 207.761719 125.214844 206.867188 124.871094 206.011719 124.464844 C 205.140625 124.089844 204.242188 123.777344 203.363281 123.429688 L 200.667969 122.574219 C 199.753906 122.347656 198.859375 122.066406 197.9375 121.878906 C 196.105469 121.480469 194.265625 121.171875 192.410156 121.015625 C 191.484375 120.929688 190.558594 120.835938 189.667969 120.835938 L 188.328125 120.792969 L 186.863281 120.824219 C 185.011719 120.828125 183.179688 121.046875 181.367188 121.300781 C 177.746094 121.839844 174.21875 122.820312 170.894531 124.234375 C 167.566406 125.628906 164.433594 127.4375 161.59375 129.597656 C 158.738281 131.738281 156.171875 134.234375 153.96875 136.996094 C 151.773438 139.757812 149.890625 142.753906 148.4375 145.9375 L 147.15625 148.746094 L 143.753906 148.75 L 142.1875 148.75 L 141.929688 148.753906 C 142.183594 148.757812 141.96875 148.753906 142.011719 148.757812 L 141.953125 148.761719 L 141.84375 148.765625 C 141.253906 148.820312 140.660156 148.816406 140.078125 148.902344 C 139.492188 148.96875 138.910156 149.023438 138.332031 149.140625 C 137.75 149.222656 137.179688 149.347656 136.609375 149.476562 C 134.324219 149.980469 132.117188 150.773438 130.050781 151.835938 C 125.910156 153.941406 122.332031 157.078125 119.679688 160.824219 C 118.367188 162.710938 117.285156 164.742188 116.46875 166.871094 C 115.675781 169.007812 115.105469 171.222656 114.835938 173.480469 C 114.6875 174.605469 114.644531 175.75 114.628906 176.882812 L 114.652344 177.648438 L 114.660156 178.027344 L 114.664062 178.222656 L 114.683594 178.480469 L 114.765625 179.519531 L 114.808594 180.039062 C 114.824219 180.210938 114.796875 179.882812 114.800781 179.933594 L 114.808594 179.988281 L 114.824219 180.09375 L 114.851562 180.304688 C 115.132812 182.570312 115.683594 184.777344 116.488281 186.882812 C 118.078125 191.097656 120.773438 194.871094 124.230469 197.773438 C 127.671875 200.695312 131.84375 202.773438 136.304688 203.746094 C 137.414062 204.003906 138.550781 204.160156 139.6875 204.289062 C 139.964844 204.320312 140.207031 204.324219 140.464844 204.347656 C 140.738281 204.367188 140.933594 204.398438 141.320312 204.402344 L 142.363281 204.429688 L 142.625 204.433594 C 142.363281 204.433594 142.585938 204.433594 142.539062 204.433594 L 142.597656 204.433594 L 142.714844 204.429688 L 143.171875 204.425781 C 145.617188 204.425781 148.027344 204.199219 150.402344 203.78125 C 155.148438 202.941406 159.679688 201.167969 164.027344 198.714844 C 168.378906 196.257812 172.503906 193.082031 176.542969 189.582031 C 180.605469 186.105469 184.585938 182.289062 188.734375 178.476562 C 192.898438 174.679688 197.253906 170.886719 202.035156 167.464844 C 204.421875 165.75 206.941406 164.164062 209.558594 162.726562 C 210.210938 162.367188 210.875 162.019531 211.542969 161.6875 C 212.195312 161.355469 212.960938 160.992188 213.601562 160.691406 L 214.554688 160.269531 C 214.984375 160.078125 215.28125 159.964844 215.652344 159.808594 C 216.359375 159.527344 217.050781 159.214844 217.78125 158.976562 C 223.507812 156.886719 229.859375 155.882812 236.164062 156.824219 C 242.417969 157.722656 248.617188 160.855469 252.597656 166.078125 C 253.59375 167.371094 254.414062 168.804688 255.058594 170.3125 C 255.710938 171.8125 256.160156 173.40625 256.382812 175.027344 C 256.617188 176.644531 256.648438 178.292969 256.425781 179.898438 C 256.363281 180.664062 256.125 181.597656 255.945312 182.351562 L 255.636719 183.347656 L 255.527344 183.695312 L 255.402344 183.972656 L 255.148438 184.523438 C 253.765625 187.4375 251.582031 189.753906 249.175781 191.484375 C 247.96875 192.359375 246.683594 193.082031 245.347656 193.644531 C 244.019531 194.210938 242.644531 194.664062 241.261719 194.929688 " clip-rule="nonzero"/></clipPath><clipPath id="1027816315"><path d="M 303.449219 145.394531 L 148.589844 44.261719 L 55.570312 186.296875 L 210.429688 287.429688 Z M 303.449219 145.394531 " clip-rule="nonzero"/></clipPath><radialGradient gradientTransform="matrix(-0.547719, 0.836321, -0.837513, -0.54694, 213.071109, 110.287627)" gradientUnits="userSpaceOnUse" r="141.139713" cx="0" id="63c4fd3f1e" cy="0" fx="0" fy="0"><stop stop-opacity="1" stop-color="rgb(31.604004%, 67.652893%, 89.7995%)" offset="0"/><stop stop-opacity="1" stop-color="rgb(31.404114%, 67.501831%, 89.608765%)" offset="0.00390625"/><stop stop-opacity="1" stop-color="rgb(31.399536%, 67.312622%, 89.408875%)" offset="0.0078125"/><stop stop-opacity="1" stop-color="rgb(31.217957%, 67.112732%, 89.399719%)" offset="0.0117188"/><stop stop-opacity="1" stop-color="rgb(31.018066%, 66.921997%, 89.222717%)" offset="0.015625"/><stop stop-opacity="1" stop-color="rgb(30.999756%, 66.522217%, 88.999939%)" offset="0.0195312"/><stop stop-opacity="1" stop-color="rgb(30.999756%, 66.281128%, 88.777161%)" offset="0.0234375"/><stop stop-opacity="1" stop-color="rgb(30.999756%, 66.069031%, 88.586426%)" offset="0.0273438"/><stop stop-opacity="1" stop-color="rgb(30.990601%, 65.686035%, 88.386536%)" offset="0.03125"/><stop stop-opacity="1" stop-color="rgb(30.79071%, 65.4953%, 88.198853%)" offset="0.0351562"/><stop stop-opacity="1" stop-color="rgb(30.599976%, 65.296936%, 88.198853%)" offset="0.0390625"/><stop stop-opacity="1" stop-color="rgb(30.599976%, 65.100098%, 88.005066%)" offset="0.0429688"/><stop stop-opacity="1" stop-color="rgb(30.599976%, 64.909363%, 87.805176%)" offset="0.046875"/><stop stop-opacity="1" stop-color="rgb(30.599976%, 64.709473%, 87.799072%)" offset="0.0507812"/><stop stop-opacity="1" stop-color="rgb(30.599976%, 64.518738%, 87.663269%)" offset="0.0546875"/><stop stop-opacity="1" stop-color="rgb(30.4245%, 64.318848%, 87.513733%)" offset="0.0585938"/><stop stop-opacity="1" stop-color="rgb(30.223083%, 64.099121%, 87.478638%)" offset="0.0625"/><stop stop-opacity="1" stop-color="rgb(30.183411%, 63.883972%, 87.278748%)" offset="0.0664062"/><stop stop-opacity="1" stop-color="rgb(29.983521%, 63.673401%, 87.098694%)" offset="0.0703125"/><stop stop-opacity="1" stop-color="rgb(29.798889%, 63.288879%, 87.09259%)" offset="0.0742188"/><stop stop-opacity="1" stop-color="rgb(29.798889%, 63.098145%, 86.8927%)" offset="0.078125"/><stop stop-opacity="1" stop-color="rgb(29.798889%, 62.901306%, 86.698914%)" offset="0.0820312"/><stop stop-opacity="1" stop-color="rgb(29.798889%, 62.557983%, 86.698914%)" offset="0.0859375"/><stop stop-opacity="1" stop-color="rgb(29.611206%, 62.405396%, 86.51123%)" offset="0.0898438"/><stop stop-opacity="1" stop-color="rgb(29.411316%, 62.216187%, 86.31134%)" offset="0.09375"/><stop stop-opacity="1" stop-color="rgb(29.399109%, 62.016296%, 86.299133%)" offset="0.0976562"/><stop stop-opacity="1" stop-color="rgb(29.399109%, 61.799622%, 86.099243%)" offset="0.101562"/><stop stop-opacity="1" stop-color="rgb(29.399109%, 61.579895%, 85.899353%)" offset="0.105469"/><stop stop-opacity="1" stop-color="rgb(29.399109%, 61.380005%, 85.884094%)" offset="0.109375"/><stop stop-opacity="1" stop-color="rgb(29.389954%, 61.18927%, 85.684204%)" offset="0.113281"/><stop stop-opacity="1" stop-color="rgb(29.190063%, 60.98938%, 85.494995%)" offset="0.117188"/><stop stop-opacity="1" stop-color="rgb(28.999329%, 60.798645%, 85.295105%)" offset="0.121094"/><stop stop-opacity="1" stop-color="rgb(28.999329%, 60.603333%, 85.099792%)" offset="0.125"/><stop stop-opacity="1" stop-color="rgb(28.999329%, 60.403442%, 85.099792%)" offset="0.128906"/><stop stop-opacity="1" stop-color="rgb(28.999329%, 60.212708%, 84.913635%)" offset="0.132812"/><stop stop-opacity="1" stop-color="rgb(28.999329%, 60.012817%, 84.712219%)" offset="0.136719"/><stop stop-opacity="1" stop-color="rgb(28.822327%, 59.822083%, 84.698486%)" offset="0.140625"/><stop stop-opacity="1" stop-color="rgb(28.622437%, 59.422302%, 84.498596%)" offset="0.144531"/><stop stop-opacity="1" stop-color="rgb(28.581238%, 59.181213%, 84.281921%)" offset="0.148438"/><stop stop-opacity="1" stop-color="rgb(28.381348%, 58.969116%, 84.082031%)" offset="0.152344"/><stop stop-opacity="1" stop-color="rgb(28.199768%, 58.586121%, 83.898926%)" offset="0.15625"/><stop stop-opacity="1" stop-color="rgb(28.199768%, 58.395386%, 83.898926%)" offset="0.160156"/><stop stop-opacity="1" stop-color="rgb(28.199768%, 58.197021%, 83.898926%)" offset="0.164062"/><stop stop-opacity="1" stop-color="rgb(28.199768%, 58.000183%, 83.705139%)" offset="0.167969"/><stop stop-opacity="1" stop-color="rgb(28.199768%, 57.809448%, 83.505249%)" offset="0.171875"/><stop stop-opacity="1" stop-color="rgb(28.015137%, 57.609558%, 83.499146%)" offset="0.175781"/><stop stop-opacity="1" stop-color="rgb(27.815247%, 57.4646%, 83.319092%)" offset="0.179688"/><stop stop-opacity="1" stop-color="rgb(27.799988%, 57.315063%, 83.119202%)" offset="0.183594"/><stop stop-opacity="1" stop-color="rgb(27.799988%, 57.098389%, 83.078003%)" offset="0.1875"/><stop stop-opacity="1" stop-color="rgb(27.799988%, 56.898499%, 82.878113%)" offset="0.191406"/><stop stop-opacity="1" stop-color="rgb(27.799988%, 56.887817%, 82.69043%)" offset="0.195312"/><stop stop-opacity="1" stop-color="rgb(27.799988%, 56.681824%, 82.540894%)" offset="0.199219"/><stop stop-opacity="1" stop-color="rgb(27.798462%, 56.292725%, 82.398987%)" offset="0.203125"/><stop stop-opacity="1" stop-color="rgb(27.650452%, 56.098938%, 82.398987%)" offset="0.207031"/><stop stop-opacity="1" stop-color="rgb(27.500916%, 55.906677%, 82.206726%)" offset="0.210938"/><stop stop-opacity="1" stop-color="rgb(27.49939%, 55.706787%, 82.006836%)" offset="0.214844"/><stop stop-opacity="1" stop-color="rgb(27.49939%, 55.516052%, 81.816101%)" offset="0.21875"/><stop stop-opacity="1" stop-color="rgb(27.49939%, 55.137634%, 81.616211%)" offset="0.222656"/><stop stop-opacity="1" stop-color="rgb(27.2995%, 54.896545%, 81.599426%)" offset="0.226562"/><stop stop-opacity="1" stop-color="rgb(27.099609%, 54.675293%, 81.57959%)" offset="0.230469"/><stop stop-opacity="1" stop-color="rgb(27.084351%, 54.484558%, 81.3797%)" offset="0.234375"/><stop stop-opacity="1" stop-color="rgb(26.88446%, 54.284668%, 81.199646%)" offset="0.238281"/><stop stop-opacity="1" stop-color="rgb(26.699829%, 54.093933%, 81.195068%)" offset="0.242188"/><stop stop-opacity="1" stop-color="rgb(26.699829%, 53.894043%, 80.995178%)" offset="0.246094"/><stop stop-opacity="1" stop-color="rgb(26.699829%, 53.69873%, 80.799866%)" offset="0.25"/><stop stop-opacity="1" stop-color="rgb(26.699829%, 53.507996%, 80.799866%)" offset="0.253906"/><stop stop-opacity="1" stop-color="rgb(26.699829%, 53.308105%, 80.618286%)" offset="0.257812"/><stop stop-opacity="1" stop-color="rgb(26.699829%, 53.121948%, 80.41687%)" offset="0.265625"/><stop stop-opacity="1" stop-color="rgb(26.498413%, 52.722168%, 80.198669%)" offset="0.269531"/><stop stop-opacity="1" stop-color="rgb(26.298523%, 52.485657%, 79.981995%)" offset="0.273438"/><stop stop-opacity="1" stop-color="rgb(26.298523%, 52.328491%, 79.782104%)" offset="0.277344"/><stop stop-opacity="1" stop-color="rgb(26.295471%, 51.991272%, 79.595947%)" offset="0.285156"/><stop stop-opacity="1" stop-color="rgb(26.097107%, 51.799011%, 79.397583%)" offset="0.289062"/><stop stop-opacity="1" stop-color="rgb(25.900269%, 51.605225%, 79.200745%)" offset="0.292969"/><stop stop-opacity="1" stop-color="rgb(25.898743%, 51.220703%, 79.014587%)" offset="0.296875"/><stop stop-opacity="1" stop-color="rgb(25.718689%, 51.014709%, 78.814697%)" offset="0.304688"/><stop stop-opacity="1" stop-color="rgb(25.518799%, 50.823975%, 78.799438%)" offset="0.308594"/><stop stop-opacity="1" stop-color="rgb(25.498962%, 50.602722%, 78.778076%)" offset="0.3125"/><stop stop-opacity="1" stop-color="rgb(25.498962%, 50.367737%, 78.578186%)" offset="0.316406"/><stop stop-opacity="1" stop-color="rgb(25.498962%, 49.987793%, 78.393555%)" offset="0.324219"/><stop stop-opacity="1" stop-color="rgb(25.498962%, 49.797058%, 78.193665%)" offset="0.328125"/><stop stop-opacity="1" stop-color="rgb(25.498962%, 49.60022%, 77.999878%)" offset="0.332031"/><stop stop-opacity="1" stop-color="rgb(25.306702%, 49.401855%, 77.999878%)" offset="0.335938"/><stop stop-opacity="1" stop-color="rgb(25.106812%, 49.211121%, 77.999878%)" offset="0.339844"/><stop stop-opacity="1" stop-color="rgb(25.099182%, 49.01123%, 77.816772%)" offset="0.34375"/><stop stop-opacity="1" stop-color="rgb(25.099182%, 48.820496%, 77.615356%)" offset="0.347656"/><stop stop-opacity="1" stop-color="rgb(25.099182%, 48.597717%, 77.449036%)" offset="0.351562"/><stop stop-opacity="1" stop-color="rgb(25.099182%, 48.374939%, 77.279663%)" offset="0.355469"/><stop stop-opacity="1" stop-color="rgb(25.099182%, 48.184204%, 77.079773%)" offset="0.359375"/><stop stop-opacity="1" stop-color="rgb(25.090027%, 47.984314%, 76.899719%)" offset="0.363281"/><stop stop-opacity="1" stop-color="rgb(24.890137%, 47.795105%, 76.895142%)" offset="0.367188"/><stop stop-opacity="1" stop-color="rgb(24.699402%, 47.645569%, 76.695251%)" offset="0.371094"/><stop stop-opacity="1" stop-color="rgb(24.508667%, 47.30835%, 76.499939%)" offset="0.378906"/><stop stop-opacity="1" stop-color="rgb(24.308777%, 46.92688%, 76.318359%)" offset="0.382812"/><stop stop-opacity="1" stop-color="rgb(24.299622%, 46.717834%, 76.116943%)" offset="0.390625"/><stop stop-opacity="1" stop-color="rgb(24.299622%, 46.499634%, 76.077271%)" offset="0.394531"/><stop stop-opacity="1" stop-color="rgb(24.299622%, 46.286011%, 75.87738%)" offset="0.398438"/><stop stop-opacity="1" stop-color="rgb(24.299622%, 46.086121%, 75.691223%)" offset="0.40625"/><stop stop-opacity="1" stop-color="rgb(24.29657%, 45.895386%, 75.491333%)" offset="0.410156"/><stop stop-opacity="1" stop-color="rgb(24.098206%, 45.697021%, 75.299072%)" offset="0.414062"/><stop stop-opacity="1" stop-color="rgb(23.901367%, 45.306396%, 75.299072%)" offset="0.417969"/><stop stop-opacity="1" stop-color="rgb(23.899841%, 45.10498%, 75.109863%)" offset="0.421875"/><stop stop-opacity="1" stop-color="rgb(23.899841%, 44.914246%, 74.909973%)" offset="0.425781"/><stop stop-opacity="1" stop-color="rgb(23.899841%, 44.540405%, 74.723816%)" offset="0.429688"/><stop stop-opacity="1" stop-color="rgb(23.899841%, 44.32373%, 74.504089%)" offset="0.4375"/><stop stop-opacity="1" stop-color="rgb(23.883057%, 44.282532%, 74.278259%)" offset="0.441406"/><stop stop-opacity="1" stop-color="rgb(23.683167%, 44.076538%, 74.099731%)" offset="0.445312"/><stop stop-opacity="1" stop-color="rgb(23.497009%, 43.693542%, 74.098206%)" offset="0.453125"/><stop stop-opacity="1" stop-color="rgb(23.300171%, 43.499756%, 73.901367%)" offset="0.457031"/><stop stop-opacity="1" stop-color="rgb(23.101807%, 43.307495%, 73.703003%)" offset="0.460938"/><stop stop-opacity="1" stop-color="rgb(23.098755%, 43.107605%, 73.516846%)" offset="0.464844"/><stop stop-opacity="1" stop-color="rgb(23.098755%, 42.921448%, 73.31543%)" offset="0.472656"/><stop stop-opacity="1" stop-color="rgb(23.098755%, 42.570496%, 73.275757%)" offset="0.476562"/><stop stop-opacity="1" stop-color="rgb(23.098755%, 42.379761%, 73.075867%)" offset="0.480469"/><stop stop-opacity="1" stop-color="rgb(23.098755%, 42.170715%, 72.889709%)" offset="0.484375"/><stop stop-opacity="1" stop-color="rgb(23.094177%, 41.789246%, 72.689819%)" offset="0.492188"/><stop stop-opacity="1" stop-color="rgb(22.894287%, 41.598511%, 72.499084%)" offset="0.496094"/><stop stop-opacity="1" stop-color="rgb(22.698975%, 41.407776%, 72.499084%)" offset="0.503906"/><stop stop-opacity="1" stop-color="rgb(22.698975%, 41.207886%, 72.358704%)" offset="0.507812"/><stop stop-opacity="1" stop-color="rgb(22.698975%, 41.017151%, 72.209167%)" offset="0.511719"/><stop stop-opacity="1" stop-color="rgb(22.566223%, 40.817261%, 72.021484%)" offset="0.515625"/><stop stop-opacity="1" stop-color="rgb(22.416687%, 40.59906%, 71.821594%)" offset="0.519531"/><stop stop-opacity="1" stop-color="rgb(22.399902%, 40.39917%, 71.781921%)" offset="0.523438"/><stop stop-opacity="1" stop-color="rgb(22.399902%, 40.386963%, 71.582031%)" offset="0.527344"/><stop stop-opacity="1" stop-color="rgb(22.399902%, 40.187073%, 71.398926%)" offset="0.53125"/><stop stop-opacity="1" stop-color="rgb(22.399902%, 39.996338%, 71.398926%)" offset="0.535156"/><stop stop-opacity="1" stop-color="rgb(22.399902%, 39.797974%, 71.398926%)" offset="0.539062"/><stop stop-opacity="1" stop-color="rgb(22.206116%, 39.601135%, 71.205139%)" offset="0.542969"/><stop stop-opacity="1" stop-color="rgb(22.0047%, 39.4104%, 71.005249%)" offset="0.546875"/><stop stop-opacity="1" stop-color="rgb(21.998596%, 39.21051%, 70.814514%)" offset="0.550781"/><stop stop-opacity="1" stop-color="rgb(21.998596%, 39.019775%, 70.614624%)" offset="0.554688"/><stop stop-opacity="1" stop-color="rgb(21.998596%, 38.818359%, 70.599365%)" offset="0.558594"/><stop stop-opacity="1" stop-color="rgb(21.998596%, 38.598633%, 70.578003%)" offset="0.5625"/><stop stop-opacity="1" stop-color="rgb(21.998596%, 38.383484%, 70.378113%)" offset="0.566406"/><stop stop-opacity="1" stop-color="rgb(21.99707%, 38.182068%, 70.198059%)" offset="0.570312"/><stop stop-opacity="1" stop-color="rgb(21.800232%, 37.800598%, 70.001221%)" offset="0.582031"/><stop stop-opacity="1" stop-color="rgb(21.601868%, 37.451172%, 69.619751%)" offset="0.585938"/><stop stop-opacity="1" stop-color="rgb(21.420288%, 37.298584%, 69.415283%)" offset="0.597656"/><stop stop-opacity="1" stop-color="rgb(21.220398%, 37.098694%, 69.198608%)" offset="0.601562"/><stop stop-opacity="1" stop-color="rgb(21.199036%, 36.880493%, 68.998718%)" offset="0.605469"/><stop stop-opacity="1" stop-color="rgb(21.199036%, 36.680603%, 68.984985%)" offset="0.609375"/><stop stop-opacity="1" stop-color="rgb(21.199036%, 36.489868%, 68.785095%)" offset="0.613281"/><stop stop-opacity="1" stop-color="rgb(21.199036%, 36.289978%, 68.598938%)" offset="0.617188"/><stop stop-opacity="1" stop-color="rgb(21.199036%, 36.099243%, 68.598938%)" offset="0.621094"/><stop stop-opacity="1" stop-color="rgb(21.199036%, 35.903931%, 68.403625%)" offset="0.625"/><stop stop-opacity="1" stop-color="rgb(21.199036%, 35.704041%, 68.203735%)" offset="0.628906"/><stop stop-opacity="1" stop-color="rgb(21.199036%, 35.517883%, 68.199158%)" offset="0.636719"/><stop stop-opacity="1" stop-color="rgb(21.022034%, 35.317993%, 68.022156%)" offset="0.640625"/><stop stop-opacity="1" stop-color="rgb(20.822144%, 35.099792%, 67.822266%)" offset="0.644531"/><stop stop-opacity="1" stop-color="rgb(20.799255%, 34.886169%, 67.790222%)" offset="0.648438"/><stop stop-opacity="1" stop-color="rgb(20.799255%, 34.683228%, 67.63916%)" offset="0.65625"/><stop stop-opacity="1" stop-color="rgb(20.799255%, 34.29718%, 67.498779%)" offset="0.664062"/><stop stop-opacity="1" stop-color="rgb(20.605469%, 34.100342%, 67.304993%)" offset="0.667969"/><stop stop-opacity="1" stop-color="rgb(20.405579%, 33.914185%, 67.105103%)" offset="0.671875"/><stop stop-opacity="1" stop-color="rgb(20.399475%, 33.714294%, 66.918945%)" offset="0.679688"/><stop stop-opacity="1" stop-color="rgb(20.399475%, 33.52356%, 66.719055%)" offset="0.683594"/><stop stop-opacity="1" stop-color="rgb(20.399475%, 33.303833%, 66.499329%)" offset="0.6875"/><stop stop-opacity="1" stop-color="rgb(20.399475%, 33.067322%, 66.299438%)" offset="0.691406"/><stop stop-opacity="1" stop-color="rgb(20.393372%, 32.688904%, 66.293335%)" offset="0.699219"/><stop stop-opacity="1" stop-color="rgb(20.193481%, 32.348633%, 66.093445%)" offset="0.703125"/><stop stop-opacity="1" stop-color="rgb(19.999695%, 32.199097%, 65.716553%)" offset="0.71875"/><stop stop-opacity="1" stop-color="rgb(19.999695%, 32.020569%, 65.516663%)" offset="0.722656"/><stop stop-opacity="1" stop-color="rgb(19.999695%, 31.797791%, 65.475464%)" offset="0.726562"/><stop stop-opacity="1" stop-color="rgb(19.979858%, 31.575012%, 65.275574%)" offset="0.730469"/><stop stop-opacity="1" stop-color="rgb(19.779968%, 31.390381%, 65.089417%)" offset="0.734375"/><stop stop-opacity="1" stop-color="rgb(19.599915%, 31.190491%, 64.889526%)" offset="0.742188"/><stop stop-opacity="1" stop-color="rgb(19.599915%, 30.804443%, 64.503479%)" offset="0.75"/><stop stop-opacity="1" stop-color="rgb(19.599915%, 30.604553%, 64.303589%)" offset="0.753906"/><stop stop-opacity="1" stop-color="rgb(19.599915%, 30.413818%, 64.299011%)" offset="0.757812"/><stop stop-opacity="1" stop-color="rgb(19.599915%, 30.212402%, 64.299011%)" offset="0.761719"/><stop stop-opacity="1" stop-color="rgb(19.599915%, 30.198669%, 64.122009%)" offset="0.765625"/><stop stop-opacity="1" stop-color="rgb(19.398499%, 29.998779%, 63.922119%)" offset="0.769531"/><stop stop-opacity="1" stop-color="rgb(19.198608%, 29.798889%, 63.899231%)" offset="0.773438"/><stop stop-opacity="1" stop-color="rgb(19.198608%, 29.786682%, 63.887024%)" offset="0.777344"/><stop stop-opacity="1" stop-color="rgb(19.198608%, 29.586792%, 63.687134%)" offset="0.78125"/><stop stop-opacity="1" stop-color="rgb(19.198608%, 29.396057%, 63.499451%)" offset="0.785156"/><stop stop-opacity="1" stop-color="rgb(19.198608%, 29.197693%, 63.499451%)" offset="0.789062"/><stop stop-opacity="1" stop-color="rgb(19.198608%, 29.000854%, 63.305664%)" offset="0.792969"/><stop stop-opacity="1" stop-color="rgb(19.198608%, 28.999329%, 63.105774%)" offset="0.796875"/><stop stop-opacity="1" stop-color="rgb(19.198608%, 28.814697%, 63.09967%)" offset="0.800781"/><stop stop-opacity="1" stop-color="rgb(19.198608%, 28.614807%, 63.09967%)" offset="0.804688"/><stop stop-opacity="1" stop-color="rgb(19.198608%, 28.599548%, 62.924194%)" offset="0.808594"/><stop stop-opacity="1" stop-color="rgb(18.998718%, 28.399658%, 62.709045%)" offset="0.8125"/><stop stop-opacity="1" stop-color="rgb(18.798828%, 28.182983%, 62.533569%)" offset="0.816406"/><stop stop-opacity="1" stop-color="rgb(18.798828%, 27.978516%, 62.393188%)" offset="0.820312"/><stop stop-opacity="1" stop-color="rgb(18.798828%, 27.644348%, 62.193298%)" offset="0.828125"/><stop stop-opacity="1" stop-color="rgb(18.798828%, 27.311707%, 61.999512%)" offset="0.835938"/><stop stop-opacity="1" stop-color="rgb(18.615723%, 27.111816%, 61.816406%)" offset="0.84375"/><stop stop-opacity="1" stop-color="rgb(18.415833%, 27.099609%, 61.616516%)" offset="0.847656"/><stop stop-opacity="1" stop-color="rgb(18.399048%, 26.899719%, 61.599731%)" offset="0.851562"/><stop stop-opacity="1" stop-color="rgb(18.399048%, 26.699829%, 61.579895%)" offset="0.855469"/><stop stop-opacity="1" stop-color="rgb(18.399048%, 26.68457%, 61.380005%)" offset="0.859375"/><stop stop-opacity="1" stop-color="rgb(18.399048%, 26.48468%, 61.193848%)" offset="0.863281"/><stop stop-opacity="1" stop-color="rgb(18.399048%, 26.10321%, 60.993958%)" offset="0.871094"/><stop stop-opacity="1" stop-color="rgb(18.399048%, 25.90332%, 60.798645%)" offset="0.878906"/><stop stop-opacity="1" stop-color="rgb(18.399048%, 25.712585%, 60.612488%)" offset="0.882812"/><stop stop-opacity="1" stop-color="rgb(18.399048%, 25.512695%, 60.412598%)" offset="0.886719"/><stop stop-opacity="1" stop-color="rgb(18.399048%, 25.498962%, 60.398865%)" offset="0.890625"/><stop stop-opacity="1" stop-color="rgb(18.199158%, 25.299072%, 60.198975%)" offset="0.894531"/><stop stop-opacity="1" stop-color="rgb(17.999268%, 25.099182%, 59.999084%)" offset="0.898438"/><stop stop-opacity="1" stop-color="rgb(17.999268%, 25.086975%, 59.986877%)" offset="0.902344"/><stop stop-opacity="1" stop-color="rgb(17.999268%, 24.887085%, 59.786987%)" offset="0.90625"/><stop stop-opacity="1" stop-color="rgb(17.999268%, 24.505615%, 59.599304%)" offset="0.917969"/><stop stop-opacity="1" stop-color="rgb(17.999268%, 24.305725%, 59.410095%)" offset="0.921875"/><stop stop-opacity="1" stop-color="rgb(17.999268%, 24.119568%, 59.210205%)" offset="0.925781"/><stop stop-opacity="1" stop-color="rgb(17.823792%, 23.919678%, 59.199524%)" offset="0.933594"/><stop stop-opacity="1" stop-color="rgb(17.623901%, 23.698425%, 58.999634%)" offset="0.9375"/><stop stop-opacity="1" stop-color="rgb(17.599487%, 23.483276%, 58.799744%)" offset="0.941406"/><stop stop-opacity="1" stop-color="rgb(17.599487%, 23.283386%, 58.787537%)" offset="0.945312"/><stop stop-opacity="1" stop-color="rgb(17.599487%, 23.098755%, 58.587646%)" offset="0.949219"/><stop stop-opacity="1" stop-color="rgb(17.599487%, 22.906494%, 58.399963%)" offset="0.960938"/><stop stop-opacity="1" stop-color="rgb(17.459106%, 22.706604%, 58.21228%)" offset="0.964844"/><stop stop-opacity="1" stop-color="rgb(17.308044%, 22.564697%, 58.010864%)" offset="0.96875"/><stop stop-opacity="1" stop-color="rgb(17.298889%, 22.415161%, 57.798767%)" offset="0.976562"/><stop stop-opacity="1" stop-color="rgb(17.298889%, 22.380066%, 57.598877%)" offset="0.980469"/><stop stop-opacity="1" stop-color="rgb(17.298889%, 22.180176%, 57.449341%)" offset="0.984375"/><stop stop-opacity="1" stop-color="rgb(17.298889%, 21.998596%, 57.299805%)" offset="1"/></radialGradient><clipPath id="3d5bf041b0"><path d="M 119.382812 135.585938 L 272.53125 135.585938 L 272.53125 211.128906 L 119.382812 211.128906 Z M 119.382812 135.585938 " clip-rule="nonzero"/></clipPath><clipPath id="5717c7444f"><path d="M 212.207031 201.039062 C 212.207031 201.039062 212.449219 201.191406 212.917969 201.484375 C 213.378906 201.792969 214.097656 202.191406 215.011719 202.707031 C 216.867188 203.71875 219.699219 205.007812 223.433594 205.917969 C 227.148438 206.796875 231.859375 207.21875 236.898438 206.25 C 237.5625 206.113281 238.304688 206.011719 238.941406 205.84375 C 239.546875 205.667969 240.160156 205.488281 240.785156 205.304688 C 241.398438 205.164062 242.050781 204.851562 242.691406 204.621094 C 243.335938 204.375 243.996094 204.140625 244.617188 203.800781 C 247.191406 202.632812 249.6875 201 251.964844 198.980469 C 256.527344 194.984375 260.25 189.277344 261.628906 182.710938 C 261.761719 181.886719 261.898438 181.058594 262.035156 180.226562 C 262.136719 179.390625 262.164062 178.539062 262.242188 177.695312 L 262.261719 177.457031 C 262.257812 177.546875 262.277344 177.144531 262.253906 177.636719 L 262.246094 177.261719 L 262.230469 176.507812 L 262.203125 174.992188 C 262.230469 173.875 262.027344 173.242188 261.9375 172.429688 L 261.773438 171.25 L 261.460938 169.984375 L 261.164062 168.710938 C 261.082031 168.285156 260.890625 167.882812 260.761719 167.464844 C 260.242188 165.792969 259.496094 164.1875 258.652344 162.628906 C 256.925781 159.539062 254.617188 156.710938 251.820312 154.414062 C 249.023438 152.121094 245.761719 150.355469 242.277344 149.269531 C 241.394531 149.046875 240.507812 148.820312 239.621094 148.597656 L 236.898438 148.195312 C 235.984375 148.113281 235.058594 148.125 234.144531 148.066406 L 233.796875 148.050781 C 233.574219 148.050781 234.003906 148.042969 233.917969 148.046875 L 232.757812 148.089844 L 231.0625 148.15625 L 230.640625 148.171875 C 230.507812 148.179688 230.40625 148.199219 230.289062 148.210938 L 229.609375 148.292969 L 228.246094 148.445312 C 227.316406 148.5625 226.304688 148.777344 225.335938 148.933594 C 224.359375 149.136719 223.390625 149.398438 222.417969 149.621094 L 219.527344 150.5 C 211.820312 153.035156 204.546875 157.476562 197.703125 162.53125 C 195.996094 163.800781 194.3125 165.117188 192.65625 166.46875 C 190.996094 167.796875 189.320312 169.1875 187.707031 170.566406 C 184.4375 173.347656 181.238281 176.214844 178.003906 179.003906 C 174.785156 181.785156 171.550781 184.613281 168.292969 187.203125 C 164.980469 189.835938 161.542969 192.441406 157.695312 194.5 C 153.894531 196.570312 149.632812 198.113281 145.273438 198.523438 C 144.734375 198.597656 144.183594 198.585938 143.644531 198.617188 L 142.835938 198.644531 C 143 198.640625 142.496094 198.652344 142.519531 198.648438 L 142.433594 198.640625 L 141.925781 198.605469 C 141.476562 198.578125 141.027344 198.546875 140.578125 198.515625 C 140.066406 198.464844 139.441406 198.363281 138.882812 198.277344 C 137.691406 198.125 136.75 197.796875 135.738281 197.527344 C 134.757812 197.199219 133.804688 196.832031 132.894531 196.402344 C 129.277344 194.648438 126.308594 192.167969 124.140625 189.355469 C 121.996094 186.519531 120.59375 183.402344 119.949219 180.359375 C 119.296875 177.332031 119.367188 174.320312 119.824219 171.871094 C 120.253906 169.304688 121.046875 167.09375 121.949219 165.207031 C 122.851562 163.316406 123.878906 161.765625 124.878906 160.523438 C 125.878906 159.277344 126.816406 158.3125 127.625 157.585938 C 128.015625 157.214844 128.386719 156.914062 128.710938 156.660156 C 129.027344 156.398438 129.304688 156.191406 129.535156 156.035156 C 129.984375 155.710938 130.214844 155.542969 130.214844 155.542969 C 130.214844 155.542969 130.027344 155.757812 129.664062 156.171875 C 129.296875 156.582031 128.785156 157.222656 128.164062 158.070312 C 126.917969 159.757812 125.332031 162.449219 124.316406 166.097656 C 123.835938 167.917969 123.460938 169.988281 123.46875 172.191406 C 123.457031 174.492188 123.757812 176.734375 124.625 179.023438 C 125.492188 181.285156 126.863281 183.503906 128.75 185.382812 C 130.652344 187.246094 133.03125 188.777344 135.6875 189.671875 C 136.007812 189.816406 136.363281 189.859375 136.699219 189.960938 C 137.042969 190.039062 137.371094 190.167969 137.722656 190.214844 C 138.40625 190.304688 139.15625 190.488281 139.738281 190.46875 C 140.0625 190.480469 140.3125 190.519531 140.691406 190.523438 C 141.140625 190.507812 141.589844 190.488281 142.039062 190.472656 L 142.378906 190.460938 L 142.546875 190.453125 L 142.632812 190.449219 C 142.710938 190.449219 142.265625 190.453125 142.484375 190.445312 L 143.035156 190.359375 C 143.398438 190.296875 143.765625 190.28125 144.128906 190.179688 C 147.050781 189.578125 149.996094 188.289062 152.875 186.355469 C 155.761719 184.457031 158.613281 182.039062 161.503906 179.347656 C 164.445312 176.589844 167.402344 173.785156 170.441406 170.808594 C 173.464844 167.839844 176.605469 164.820312 179.882812 161.785156 C 183.152344 158.742188 186.601562 155.722656 190.289062 152.847656 C 197.613281 147.082031 205.988281 141.820312 215.546875 138.582031 C 220.363281 137.011719 225.277344 136 230.628906 135.710938 L 232.324219 135.660156 L 233.171875 135.632812 L 233.382812 135.628906 L 233.488281 135.625 C 233.476562 135.625 233.972656 135.617188 233.820312 135.621094 L 234.320312 135.648438 C 235.652344 135.738281 236.988281 135.78125 238.304688 135.9375 C 239.621094 136.15625 240.9375 136.359375 242.234375 136.625 C 243.515625 136.972656 244.792969 137.324219 246.0625 137.699219 C 256.136719 141.050781 264.304688 148.613281 268.558594 157.5625 C 269.613281 159.804688 270.503906 162.101562 271.097656 164.457031 C 271.246094 165.042969 271.453125 165.613281 271.546875 166.210938 L 271.851562 167.988281 C 271.945312 168.578125 272.039062 169.167969 272.132812 169.753906 C 272.191406 170.375 272.222656 171.015625 272.261719 171.640625 C 272.316406 172.867188 272.433594 174.253906 272.332031 175.160156 L 272.25 176.671875 L 272.210938 177.425781 L 272.191406 177.800781 C 272.167969 178.355469 272.175781 178.015625 272.167969 178.164062 L 272.148438 178.273438 L 272.121094 178.488281 C 271.945312 179.625 271.808594 180.757812 271.589844 181.867188 C 271.316406 182.96875 271.050781 184.0625 270.75 185.132812 C 269.441406 189.394531 267.414062 193.265625 264.917969 196.550781 C 262.414062 199.832031 259.503906 202.578125 256.402344 204.714844 C 253.296875 206.847656 250.050781 208.472656 246.792969 209.445312 C 246 209.742188 245.179688 209.921875 244.378906 210.109375 C 243.566406 210.285156 242.820312 210.519531 241.976562 210.609375 C 241.164062 210.726562 240.359375 210.835938 239.566406 210.949219 C 238.796875 211.03125 238.132812 211.015625 237.429688 211.050781 C 231.4375 211.289062 226.414062 209.945312 222.628906 208.300781 C 218.828125 206.640625 216.265625 204.667969 214.605469 203.300781 C 213.78125 202.597656 213.183594 202.03125 212.800781 201.632812 C 212.410156 201.242188 212.207031 201.039062 212.207031 201.039062 Z M 212.207031 201.039062 " clip-rule="nonzero"/></clipPath><clipPath id="b1557d429b"><path d="M 212.207031 201.039062 C 212.207031 201.039062 212.449219 201.191406 212.917969 201.484375 C 213.378906 201.792969 214.097656 202.191406 215.011719 202.707031 C 216.867188 203.71875 219.699219 205.007812 223.433594 205.917969 C 227.148438 206.796875 231.859375 207.21875 236.898438 206.25 C 237.5625 206.113281 238.304688 206.011719 238.941406 205.84375 C 239.546875 205.667969 240.160156 205.488281 240.785156 205.304688 C 241.398438 205.164062 242.050781 204.851562 242.691406 204.621094 C 243.335938 204.375 243.996094 204.140625 244.617188 203.800781 C 247.191406 202.632812 249.6875 201 251.964844 198.980469 C 256.527344 194.984375 260.25 189.277344 261.628906 182.710938 C 261.761719 181.886719 261.898438 181.058594 262.035156 180.226562 C 262.136719 179.390625 262.164062 178.539062 262.242188 177.695312 L 262.261719 177.457031 C 262.257812 177.546875 262.277344 177.144531 262.253906 177.636719 L 262.246094 177.261719 L 262.230469 176.507812 L 262.203125 174.992188 C 262.230469 173.875 262.027344 173.242188 261.9375 172.429688 L 261.773438 171.25 L 261.460938 169.984375 L 261.164062 168.710938 C 261.082031 168.285156 260.890625 167.882812 260.761719 167.464844 C 260.242188 165.792969 259.496094 164.1875 258.652344 162.628906 C 256.925781 159.539062 254.617188 156.710938 251.820312 154.414062 C 249.023438 152.121094 245.761719 150.355469 242.277344 149.269531 C 241.394531 149.046875 240.507812 148.820312 239.621094 148.597656 L 236.898438 148.195312 C 235.984375 148.113281 235.058594 148.125 234.144531 148.066406 L 233.796875 148.050781 C 233.574219 148.050781 234.003906 148.042969 233.917969 148.046875 L 232.757812 148.089844 L 231.0625 148.15625 L 230.640625 148.171875 C 230.507812 148.179688 230.40625 148.199219 230.289062 148.210938 L 229.609375 148.292969 L 228.246094 148.445312 C 227.316406 148.5625 226.304688 148.777344 225.335938 148.933594 C 224.359375 149.136719 223.390625 149.398438 222.417969 149.621094 L 219.527344 150.5 C 211.820312 153.035156 204.546875 157.476562 197.703125 162.53125 C 195.996094 163.800781 194.3125 165.117188 192.65625 166.46875 C 190.996094 167.796875 189.320312 169.1875 187.707031 170.566406 C 184.4375 173.347656 181.238281 176.214844 178.003906 179.003906 C 174.785156 181.785156 171.550781 184.613281 168.292969 187.203125 C 164.980469 189.835938 161.542969 192.441406 157.695312 194.5 C 153.894531 196.570312 149.632812 198.113281 145.273438 198.523438 C 144.734375 198.597656 144.183594 198.585938 143.644531 198.617188 L 142.835938 198.644531 C 143 198.640625 142.496094 198.652344 142.519531 198.648438 L 142.433594 198.640625 L 141.925781 198.605469 C 141.476562 198.578125 141.027344 198.546875 140.578125 198.515625 C 140.066406 198.464844 139.441406 198.363281 138.882812 198.277344 C 137.691406 198.125 136.75 197.796875 135.738281 197.527344 C 134.757812 197.199219 133.804688 196.832031 132.894531 196.402344 C 129.277344 194.648438 126.308594 192.167969 124.140625 189.355469 C 121.996094 186.519531 120.59375 183.402344 119.949219 180.359375 C 119.296875 177.332031 119.367188 174.320312 119.824219 171.871094 C 120.253906 169.304688 121.046875 167.09375 121.949219 165.207031 C 122.851562 163.316406 123.878906 161.765625 124.878906 160.523438 C 125.878906 159.277344 126.816406 158.3125 127.625 157.585938 C 128.015625 157.214844 128.386719 156.914062 128.710938 156.660156 C 129.027344 156.398438 129.304688 156.191406 129.535156 156.035156 C 129.984375 155.710938 130.214844 155.542969 130.214844 155.542969 C 130.214844 155.542969 130.027344 155.757812 129.664062 156.171875 C 129.296875 156.582031 128.785156 157.222656 128.164062 158.070312 C 126.917969 159.757812 125.332031 162.449219 124.316406 166.097656 C 123.835938 167.917969 123.460938 169.988281 123.46875 172.191406 C 123.457031 174.492188 123.757812 176.734375 124.625 179.023438 C 125.492188 181.285156 126.863281 183.503906 128.75 185.382812 C 130.652344 187.246094 133.03125 188.777344 135.6875 189.671875 C 136.007812 189.816406 136.363281 189.859375 136.699219 189.960938 C 137.042969 190.039062 137.371094 190.167969 137.722656 190.214844 C 138.40625 190.304688 139.15625 190.488281 139.738281 190.46875 C 140.0625 190.480469 140.3125 190.519531 140.691406 190.523438 C 141.140625 190.507812 141.589844 190.488281 142.039062 190.472656 L 142.378906 190.460938 L 142.546875 190.453125 L 142.632812 190.449219 C 142.710938 190.449219 142.265625 190.453125 142.484375 190.445312 L 143.035156 190.359375 C 143.398438 190.296875 143.765625 190.28125 144.128906 190.179688 C 147.050781 189.578125 149.996094 188.289062 152.875 186.355469 C 155.761719 184.457031 158.613281 182.039062 161.503906 179.347656 C 164.445312 176.589844 167.402344 173.785156 170.441406 170.808594 C 173.464844 167.839844 176.605469 164.820312 179.882812 161.785156 C 183.152344 158.742188 186.601562 155.722656 190.289062 152.847656 C 197.613281 147.082031 205.988281 141.820312 215.546875 138.582031 C 220.363281 137.011719 225.277344 136 230.628906 135.710938 L 232.324219 135.660156 L 233.171875 135.632812 L 233.382812 135.628906 L 233.488281 135.625 C 233.476562 135.625 233.972656 135.617188 233.820312 135.621094 L 234.320312 135.648438 C 235.652344 135.738281 236.988281 135.78125 238.304688 135.9375 C 239.621094 136.15625 240.9375 136.359375 242.234375 136.625 C 243.515625 136.972656 244.792969 137.324219 246.0625 137.699219 C 256.136719 141.050781 264.304688 148.613281 268.558594 157.5625 C 269.613281 159.804688 270.503906 162.101562 271.097656 164.457031 C 271.246094 165.042969 271.453125 165.613281 271.546875 166.210938 L 271.851562 167.988281 C 271.945312 168.578125 272.039062 169.167969 272.132812 169.753906 C 272.191406 170.375 272.222656 171.015625 272.261719 171.640625 C 272.316406 172.867188 272.433594 174.253906 272.332031 175.160156 L 272.25 176.671875 L 272.210938 177.425781 L 272.191406 177.800781 C 272.167969 178.355469 272.175781 178.015625 272.167969 178.164062 L 272.148438 178.273438 L 272.121094 178.488281 C 271.945312 179.625 271.808594 180.757812 271.589844 181.867188 C 271.316406 182.96875 271.050781 184.0625 270.75 185.132812 C 269.441406 189.394531 267.414062 193.265625 264.917969 196.550781 C 262.414062 199.832031 259.503906 202.578125 256.402344 204.714844 C 253.296875 206.847656 250.050781 208.472656 246.792969 209.445312 C 246 209.742188 245.179688 209.921875 244.378906 210.109375 C 243.566406 210.285156 242.820312 210.519531 241.976562 210.609375 C 241.164062 210.726562 240.359375 210.835938 239.566406 210.949219 C 238.796875 211.03125 238.132812 211.015625 237.429688 211.050781 C 231.4375 211.289062 226.414062 209.945312 222.628906 208.300781 C 218.828125 206.640625 216.265625 204.667969 214.605469 203.300781 C 213.78125 202.597656 213.183594 202.03125 212.800781 201.632812 C 212.410156 201.242188 212.207031 201.039062 212.207031 201.039062 " clip-rule="nonzero"/></clipPath><clipPath id="ef7f1627ae"><path d="M 307.144531 158.285156 L 165.171875 65.570312 L 84.585938 188.621094 L 226.558594 281.335938 Z M 307.144531 158.285156 " clip-rule="nonzero"/></clipPath><radialGradient gradientTransform="matrix(-0.547719, 0.836321, -0.837513, -0.54694, 213.071109, 110.287627)" gradientUnits="userSpaceOnUse" r="141.139713" cx="0" id="92f720e539" cy="0" fx="0" fy="0"><stop stop-opacity="1" stop-color="rgb(0.193787%, 67.799377%, 93.699646%)" offset="0"/><stop stop-opacity="1" stop-color="rgb(0.393677%, 67.658997%, 93.513489%)" offset="0.0078125"/><stop stop-opacity="1" stop-color="rgb(0.39978%, 67.50946%, 93.313599%)" offset="0.0117188"/><stop stop-opacity="1" stop-color="rgb(0.39978%, 67.498779%, 93.299866%)" offset="0.015625"/><stop stop-opacity="1" stop-color="rgb(0.59967%, 67.498779%, 93.299866%)" offset="0.0195312"/><stop stop-opacity="1" stop-color="rgb(0.799561%, 67.481995%, 93.299866%)" offset="0.0234375"/><stop stop-opacity="1" stop-color="rgb(0.799561%, 67.282104%, 93.286133%)" offset="0.0273438"/><stop stop-opacity="1" stop-color="rgb(0.80719%, 67.098999%, 93.086243%)" offset="0.03125"/><stop stop-opacity="1" stop-color="rgb(1.00708%, 67.098999%, 92.89856%)" offset="0.0351562"/><stop stop-opacity="1" stop-color="rgb(1.199341%, 66.90979%, 92.89856%)" offset="0.046875"/><stop stop-opacity="1" stop-color="rgb(1.199341%, 66.7099%, 92.89856%)" offset="0.0507812"/><stop stop-opacity="1" stop-color="rgb(1.199341%, 66.699219%, 92.718506%)" offset="0.0546875"/><stop stop-opacity="1" stop-color="rgb(1.373291%, 66.699219%, 92.518616%)" offset="0.0585938"/><stop stop-opacity="1" stop-color="rgb(1.573181%, 66.677856%, 92.498779%)" offset="0.0625"/><stop stop-opacity="1" stop-color="rgb(1.61438%, 66.477966%, 92.498779%)" offset="0.0664062"/><stop stop-opacity="1" stop-color="rgb(1.81427%, 66.299438%, 92.349243%)" offset="0.0703125"/><stop stop-opacity="1" stop-color="rgb(1.998901%, 66.299438%, 92.199707%)" offset="0.0820312"/><stop stop-opacity="1" stop-color="rgb(2.191162%, 66.107178%, 92.199707%)" offset="0.0859375"/><stop stop-opacity="1" stop-color="rgb(2.391052%, 65.907288%, 92.021179%)" offset="0.0898438"/><stop stop-opacity="1" stop-color="rgb(2.415466%, 65.875244%, 91.821289%)" offset="0.101562"/><stop stop-opacity="1" stop-color="rgb(2.566528%, 65.675354%, 91.799927%)" offset="0.105469"/><stop stop-opacity="1" stop-color="rgb(2.703857%, 65.499878%, 91.793823%)" offset="0.117188"/><stop stop-opacity="1" stop-color="rgb(2.903748%, 65.499878%, 91.593933%)" offset="0.121094"/><stop stop-opacity="1" stop-color="rgb(3.09906%, 65.304565%, 91.398621%)" offset="0.125"/><stop stop-opacity="1" stop-color="rgb(3.09906%, 65.103149%, 91.398621%)" offset="0.128906"/><stop stop-opacity="1" stop-color="rgb(3.09906%, 65.098572%, 91.398621%)" offset="0.140625"/><stop stop-opacity="1" stop-color="rgb(3.29895%, 64.898682%, 91.19873%)" offset="0.144531"/><stop stop-opacity="1" stop-color="rgb(3.49884%, 64.698792%, 90.99884%)" offset="0.148438"/><stop stop-opacity="1" stop-color="rgb(3.511047%, 64.698792%, 90.99884%)" offset="0.152344"/><stop stop-opacity="1" stop-color="rgb(3.710938%, 64.698792%, 90.99884%)" offset="0.15625"/><stop stop-opacity="1" stop-color="rgb(3.898621%, 64.69574%, 90.99884%)" offset="0.160156"/><stop stop-opacity="1" stop-color="rgb(3.898621%, 64.497375%, 90.99884%)" offset="0.164062"/><stop stop-opacity="1" stop-color="rgb(4.092407%, 64.300537%, 90.805054%)" offset="0.167969"/><stop stop-opacity="1" stop-color="rgb(4.292297%, 64.299011%, 90.605164%)" offset="0.171875"/><stop stop-opacity="1" stop-color="rgb(4.299927%, 64.123535%, 90.59906%)" offset="0.183594"/><stop stop-opacity="1" stop-color="rgb(4.319763%, 63.923645%, 90.577698%)" offset="0.1875"/><stop stop-opacity="1" stop-color="rgb(4.525757%, 63.893127%, 90.377808%)" offset="0.191406"/><stop stop-opacity="1" stop-color="rgb(4.905701%, 63.693237%, 90.19928%)" offset="0.203125"/><stop stop-opacity="1" stop-color="rgb(5.28717%, 63.499451%, 90.011597%)" offset="0.214844"/><stop stop-opacity="1" stop-color="rgb(5.487061%, 63.499451%, 89.811707%)" offset="0.21875"/><stop stop-opacity="1" stop-color="rgb(5.499268%, 63.320923%, 89.7995%)" offset="0.222656"/><stop stop-opacity="1" stop-color="rgb(5.499268%, 63.121033%, 89.7995%)" offset="0.226562"/><stop stop-opacity="1" stop-color="rgb(5.499268%, 63.09967%, 89.779663%)" offset="0.230469"/><stop stop-opacity="1" stop-color="rgb(5.513%, 63.084412%, 89.579773%)" offset="0.234375"/><stop stop-opacity="1" stop-color="rgb(5.712891%, 62.884521%, 89.399719%)" offset="0.238281"/><stop stop-opacity="1" stop-color="rgb(6.09436%, 62.69989%, 89.399719%)" offset="0.25"/><stop stop-opacity="1" stop-color="rgb(6.29425%, 62.554932%, 89.205933%)" offset="0.253906"/><stop stop-opacity="1" stop-color="rgb(6.298828%, 62.40387%, 89.006042%)" offset="0.261719"/><stop stop-opacity="1" stop-color="rgb(6.396484%, 62.30011%, 88.999939%)" offset="0.269531"/><stop stop-opacity="1" stop-color="rgb(6.596375%, 62.10022%, 88.893127%)" offset="0.273438"/><stop stop-opacity="1" stop-color="rgb(6.800842%, 61.999512%, 88.691711%)" offset="0.28125"/><stop stop-opacity="1" stop-color="rgb(7.000732%, 61.901855%, 88.598633%)" offset="0.289062"/><stop stop-opacity="1" stop-color="rgb(7.191467%, 61.701965%, 88.50708%)" offset="0.296875"/><stop stop-opacity="1" stop-color="rgb(7.391357%, 61.499023%, 88.30719%)" offset="0.304688"/><stop stop-opacity="1" stop-color="rgb(7.580566%, 61.299133%, 88.198853%)" offset="0.3125"/><stop stop-opacity="1" stop-color="rgb(7.730103%, 61.199951%, 88.095093%)" offset="0.320312"/><stop stop-opacity="1" stop-color="rgb(7.798767%, 61.196899%, 87.895203%)" offset="0.328125"/><stop stop-opacity="1" stop-color="rgb(7.798767%, 61.000061%, 87.799072%)" offset="0.332031"/><stop stop-opacity="1" stop-color="rgb(7.798767%, 60.614014%, 87.658691%)" offset="0.335938"/><stop stop-opacity="1" stop-color="rgb(7.981873%, 60.411072%, 87.509155%)" offset="0.34375"/><stop stop-opacity="1" stop-color="rgb(8.280945%, 60.299683%, 87.5%)" offset="0.347656"/><stop stop-opacity="1" stop-color="rgb(8.49762%, 60.099792%, 87.391663%)" offset="0.355469"/><stop stop-opacity="1" stop-color="rgb(8.702087%, 59.999084%, 87.191772%)" offset="0.363281"/><stop stop-opacity="1" stop-color="rgb(8.901978%, 59.901428%, 87.098694%)" offset="0.371094"/><stop stop-opacity="1" stop-color="rgb(8.999634%, 59.701538%, 87.005615%)" offset="0.378906"/><stop stop-opacity="1" stop-color="rgb(9.100342%, 59.498596%, 86.805725%)" offset="0.386719"/><stop stop-opacity="1" stop-color="rgb(9.300232%, 59.298706%, 86.698914%)" offset="0.394531"/><stop stop-opacity="1" stop-color="rgb(9.503174%, 59.095764%, 86.595154%)" offset="0.402344"/><stop stop-opacity="1" stop-color="rgb(9.703064%, 58.80127%, 86.300659%)" offset="0.410156"/><stop stop-opacity="1" stop-color="rgb(9.889221%, 58.505249%, 86.004639%)" offset="0.425781"/><stop stop-opacity="1" stop-color="rgb(10.076904%, 58.399963%, 85.899353%)" offset="0.433594"/><stop stop-opacity="1" stop-color="rgb(10.284424%, 58.399963%, 85.899353%)" offset="0.4375"/><stop stop-opacity="1" stop-color="rgb(10.496521%, 58.293152%, 85.794067%)" offset="0.441406"/><stop stop-opacity="1" stop-color="rgb(10.699463%, 58.093262%, 85.594177%)" offset="0.449219"/><stop stop-opacity="1" stop-color="rgb(10.899353%, 57.902527%, 85.499573%)" offset="0.457031"/><stop stop-opacity="1" stop-color="rgb(10.998535%, 57.702637%, 85.40802%)" offset="0.464844"/><stop stop-opacity="1" stop-color="rgb(11.097717%, 57.524109%, 85.20813%)" offset="0.472656"/><stop stop-opacity="1" stop-color="rgb(11.297607%, 57.272339%, 84.996033%)" offset="0.480469"/><stop stop-opacity="1" stop-color="rgb(11.497498%, 56.996155%, 84.796143%)" offset="0.496094"/><stop stop-opacity="1" stop-color="rgb(11.697388%, 56.716919%, 84.698486%)" offset="0.503906"/><stop stop-opacity="1" stop-color="rgb(11.975098%, 56.517029%, 84.521484%)" offset="0.515625"/><stop stop-opacity="1" stop-color="rgb(12.184143%, 56.486511%, 84.321594%)" offset="0.519531"/><stop stop-opacity="1" stop-color="rgb(12.358093%, 56.286621%, 84.298706%)" offset="0.53125"/><stop stop-opacity="1" stop-color="rgb(12.5%, 56.098938%, 84.295654%)" offset="0.535156"/><stop stop-opacity="1" stop-color="rgb(12.5%, 56.098938%, 84.09729%)" offset="0.539062"/><stop stop-opacity="1" stop-color="rgb(12.5%, 56.098938%, 83.900452%)" offset="0.542969"/><stop stop-opacity="1" stop-color="rgb(12.5%, 55.909729%, 83.898926%)" offset="0.546875"/><stop stop-opacity="1" stop-color="rgb(12.5%, 55.709839%, 83.898926%)" offset="0.550781"/><stop stop-opacity="1" stop-color="rgb(12.678528%, 55.699158%, 83.898926%)" offset="0.554688"/><stop stop-opacity="1" stop-color="rgb(12.878418%, 55.699158%, 83.898926%)" offset="0.558594"/><stop stop-opacity="1" stop-color="rgb(12.919617%, 55.677795%, 83.699036%)" offset="0.5625"/><stop stop-opacity="1" stop-color="rgb(13.119507%, 55.471802%, 83.499146%)" offset="0.566406"/><stop stop-opacity="1" stop-color="rgb(13.299561%, 55.093384%, 83.49762%)" offset="0.578125"/><stop stop-opacity="1" stop-color="rgb(13.299561%, 54.899597%, 83.300781%)" offset="0.582031"/><stop stop-opacity="1" stop-color="rgb(13.299561%, 54.899597%, 83.102417%)" offset="0.585938"/><stop stop-opacity="1" stop-color="rgb(13.487244%, 54.899597%, 83.099365%)" offset="0.589844"/><stop stop-opacity="1" stop-color="rgb(13.687134%, 54.899597%, 83.099365%)" offset="0.59375"/><stop stop-opacity="1" stop-color="rgb(13.699341%, 54.721069%, 83.099365%)" offset="0.597656"/><stop stop-opacity="1" stop-color="rgb(13.722229%, 54.521179%, 83.074951%)" offset="0.601562"/><stop stop-opacity="1" stop-color="rgb(13.922119%, 54.499817%, 82.875061%)" offset="0.605469"/><stop stop-opacity="1" stop-color="rgb(14.099121%, 54.484558%, 82.699585%)" offset="0.609375"/><stop stop-opacity="1" stop-color="rgb(14.099121%, 54.284668%, 82.699585%)" offset="0.613281"/><stop stop-opacity="1" stop-color="rgb(14.103699%, 54.098511%, 82.699585%)" offset="0.617188"/><stop stop-opacity="1" stop-color="rgb(14.303589%, 54.003906%, 82.548523%)" offset="0.621094"/><stop stop-opacity="1" stop-color="rgb(14.588928%, 53.804016%, 82.398987%)" offset="0.632812"/><stop stop-opacity="1" stop-color="rgb(14.788818%, 53.601074%, 82.299805%)" offset="0.640625"/><stop stop-opacity="1" stop-color="rgb(15.005493%, 53.401184%, 82.099915%)" offset="0.648438"/><stop stop-opacity="1" stop-color="rgb(15.205383%, 53.196716%, 81.999207%)" offset="0.65625"/><stop stop-opacity="1" stop-color="rgb(15.299988%, 52.996826%, 81.90155%)" offset="0.664062"/><stop stop-opacity="1" stop-color="rgb(15.391541%, 52.806091%, 81.70166%)" offset="0.671875"/><stop stop-opacity="1" stop-color="rgb(15.591431%, 52.606201%, 81.599426%)" offset="0.679688"/><stop stop-opacity="1" stop-color="rgb(15.80658%, 52.418518%, 81.491089%)" offset="0.6875"/><stop stop-opacity="1" stop-color="rgb(16.00647%, 52.1698%, 81.193542%)" offset="0.695312"/><stop stop-opacity="1" stop-color="rgb(16.192627%, 51.899719%, 80.900574%)" offset="0.710938"/><stop stop-opacity="1" stop-color="rgb(16.392517%, 51.696777%, 80.799866%)" offset="0.71875"/><stop stop-opacity="1" stop-color="rgb(16.607666%, 51.496887%, 80.690002%)" offset="0.726562"/><stop stop-opacity="1" stop-color="rgb(16.807556%, 51.293945%, 80.488586%)" offset="0.734375"/><stop stop-opacity="1" stop-color="rgb(16.998291%, 51.094055%, 80.39856%)" offset="0.742188"/><stop stop-opacity="1" stop-color="rgb(17.198181%, 50.999451%, 80.39856%)" offset="0.75"/><stop stop-opacity="1" stop-color="rgb(17.298889%, 50.813293%, 80.212402%)" offset="0.757812"/><stop stop-opacity="1" stop-color="rgb(17.448425%, 50.590515%, 80.012512%)" offset="0.761719"/><stop stop-opacity="1" stop-color="rgb(17.599487%, 50.376892%, 79.998779%)" offset="0.773438"/><stop stop-opacity="1" stop-color="rgb(17.599487%, 50.19989%, 79.986572%)" offset="0.777344"/><stop stop-opacity="1" stop-color="rgb(17.599487%, 50.19989%, 79.786682%)" offset="0.78125"/><stop stop-opacity="1" stop-color="rgb(17.599487%, 50.195312%, 79.598999%)" offset="0.785156"/><stop stop-opacity="1" stop-color="rgb(17.599487%, 49.996948%, 79.598999%)" offset="0.789062"/><stop stop-opacity="1" stop-color="rgb(17.793274%, 49.80011%, 79.598999%)" offset="0.792969"/><stop stop-opacity="1" stop-color="rgb(17.993164%, 49.798584%, 79.598999%)" offset="0.796875"/><stop stop-opacity="1" stop-color="rgb(17.999268%, 49.798584%, 79.414368%)" offset="0.800781"/><stop stop-opacity="1" stop-color="rgb(17.999268%, 49.61853%, 79.214478%)" offset="0.804688"/><stop stop-opacity="1" stop-color="rgb(18.173218%, 49.41864%, 79.199219%)" offset="0.808594"/><stop stop-opacity="1" stop-color="rgb(18.383789%, 49.388123%, 79.188538%)" offset="0.8125"/><stop stop-opacity="1" stop-color="rgb(18.608093%, 49.188232%, 78.988647%)" offset="0.816406"/><stop stop-opacity="1" stop-color="rgb(18.798828%, 48.997498%, 78.799438%)" offset="0.824219"/><stop stop-opacity="1" stop-color="rgb(18.798828%, 48.802185%, 78.799438%)" offset="0.832031"/><stop stop-opacity="1" stop-color="rgb(18.989563%, 48.602295%, 78.607178%)" offset="0.839844"/><stop stop-opacity="1" stop-color="rgb(19.189453%, 48.497009%, 78.407288%)" offset="0.847656"/><stop stop-opacity="1" stop-color="rgb(19.198608%, 48.297119%, 78.399658%)" offset="0.851562"/><stop stop-opacity="1" stop-color="rgb(19.303894%, 48.094177%, 78.294373%)" offset="0.859375"/><stop stop-opacity="1" stop-color="rgb(19.503784%, 47.894287%, 78.094482%)" offset="0.867188"/><stop stop-opacity="1" stop-color="rgb(19.784546%, 47.659302%, 77.999878%)" offset="0.882812"/><stop stop-opacity="1" stop-color="rgb(19.984436%, 47.509766%, 77.818298%)" offset="0.886719"/><stop stop-opacity="1" stop-color="rgb(19.999695%, 47.499084%, 77.616882%)" offset="0.890625"/><stop stop-opacity="1" stop-color="rgb(20.021057%, 47.476196%, 77.598572%)" offset="0.894531"/><stop stop-opacity="1" stop-color="rgb(20.220947%, 47.273254%, 77.449036%)" offset="0.898438"/><stop stop-opacity="1" stop-color="rgb(20.399475%, 46.896362%, 77.2995%)" offset="0.910156"/><stop stop-opacity="1" stop-color="rgb(20.593262%, 46.699524%, 77.2995%)" offset="0.917969"/><stop stop-opacity="1" stop-color="rgb(20.793152%, 46.508789%, 77.108765%)" offset="0.925781"/><stop stop-opacity="1" stop-color="rgb(20.799255%, 46.289062%, 76.908875%)" offset="0.933594"/><stop stop-opacity="1" stop-color="rgb(20.799255%, 46.078491%, 76.899719%)" offset="0.941406"/><stop stop-opacity="1" stop-color="rgb(20.809937%, 45.899963%, 76.899719%)" offset="0.945312"/><stop stop-opacity="1" stop-color="rgb(21.009827%, 45.892334%, 76.89209%)" offset="0.949219"/><stop stop-opacity="1" stop-color="rgb(21.199036%, 45.692444%, 76.6922%)" offset="0.953125"/><stop stop-opacity="1" stop-color="rgb(21.395874%, 45.498657%, 76.499939%)" offset="0.957031"/><stop stop-opacity="1" stop-color="rgb(21.594238%, 45.307922%, 76.499939%)" offset="0.964844"/><stop stop-opacity="1" stop-color="rgb(21.598816%, 45.108032%, 76.321411%)" offset="0.972656"/><stop stop-opacity="1" stop-color="rgb(21.798706%, 45.08667%, 76.119995%)" offset="0.976562"/><stop stop-opacity="1" stop-color="rgb(21.998596%, 44.88678%, 76.098633%)" offset="0.980469"/><stop stop-opacity="1" stop-color="rgb(21.998596%, 44.699097%, 76.094055%)" offset="0.988281"/><stop stop-opacity="1" stop-color="rgb(21.998596%, 44.699097%, 75.894165%)" offset="0.992188"/><stop stop-opacity="1" stop-color="rgb(21.998596%, 44.699097%, 75.698853%)" offset="1"/></radialGradient><clipPath id="6f48784b80"><path d="M 137.480469 170.15625 L 148.847656 170.15625 L 148.847656 183.296875 L 137.480469 183.296875 Z M 137.480469 170.15625 " clip-rule="nonzero"/></clipPath><clipPath id="1637280aae"><path d="M 137.480469 173.453125 L 137.480469 180.015625 L 143.164062 183.296875 L 148.847656 180.015625 L 148.847656 173.453125 L 143.164062 170.171875 L 137.480469 173.453125 " clip-rule="nonzero"/></clipPath><clipPath id="06e4bb59a2"><path d="M 131 159.472656 L 142.363281 159.472656 L 142.363281 172.613281 L 131 172.613281 Z M 131 159.472656 " clip-rule="nonzero"/></clipPath><clipPath id="8b835efb58"><path d="M 131 162.769531 L 131 169.332031 L 136.683594 172.613281 L 142.363281 169.332031 L 142.363281 162.769531 L 136.683594 159.488281 L 131 162.769531 " clip-rule="nonzero"/></clipPath><clipPath id="b3bdbae6dd"><path d="M 143.164062 159.472656 L 154.53125 159.472656 L 154.53125 172.613281 L 143.164062 172.613281 Z M 143.164062 159.472656 " clip-rule="nonzero"/></clipPath><clipPath id="88b2b7d81b"><path d="M 143.164062 162.769531 L 143.164062 169.332031 L 148.847656 172.613281 L 154.53125 169.332031 L 154.53125 162.769531 L 148.847656 159.488281 L 143.164062 162.769531 " clip-rule="nonzero"/></clipPath><clipPath id="c3eab3a860"><path d="M 236 179 L 236.851562 179 L 236.851562 180 L 236 180 Z M 236 179 " clip-rule="nonzero"/></clipPath><clipPath id="847f7ef20d"><path d="M 235 177 L 236.851562 177 L 236.851562 179 L 235 179 Z M 235 177 " clip-rule="nonzero"/></clipPath><clipPath id="2feedd2bce"><path d="M 234 176.144531 L 236 176.144531 L 236 178 L 234 178 Z M 234 176.144531 " clip-rule="nonzero"/></clipPath><clipPath id="96dd10c546"><path d="M 236 176.144531 L 236.851562 176.144531 L 236.851562 177 L 236 177 Z M 236 176.144531 " clip-rule="nonzero"/></clipPath><clipPath id="cbe9315e86"><path d="M 219.601562 176.144531 L 233 176.144531 L 233 190.394531 L 219.601562 190.394531 Z M 219.601562 176.144531 " clip-rule="nonzero"/></clipPath><clipPath id="79466e73a5"><path d="M 169.640625 128.601562 L 181.007812 128.601562 L 181.007812 141.742188 L 169.640625 141.742188 Z M 169.640625 128.601562 " clip-rule="nonzero"/></clipPath><clipPath id="7e74c5d6e6"><path d="M 181.007812 138.445312 L 181.007812 131.882812 L 175.324219 128.601562 L 169.640625 131.882812 L 169.640625 138.445312 L 175.324219 141.722656 L 181.007812 138.445312 " clip-rule="nonzero"/></clipPath><clipPath id="11d5d2400b"><path d="M 176.121094 139.28125 L 187.488281 139.28125 L 187.488281 152.421875 L 176.121094 152.421875 Z M 176.121094 139.28125 " clip-rule="nonzero"/></clipPath><clipPath id="bd0193cbef"><path d="M 187.488281 149.125 L 187.488281 142.5625 L 181.804688 139.28125 L 176.121094 142.5625 L 176.121094 149.125 L 181.804688 152.40625 L 187.488281 149.125 " clip-rule="nonzero"/></clipPath><clipPath id="588a488f0e"><path d="M 163.957031 139.28125 L 175.324219 139.28125 L 175.324219 152.421875 L 163.957031 152.421875 Z M 163.957031 139.28125 " clip-rule="nonzero"/></clipPath><clipPath id="38e1f337f7"><path d="M 175.324219 149.125 L 175.324219 142.5625 L 169.640625 139.28125 L 163.957031 142.5625 L 163.957031 149.125 L 169.640625 152.40625 L 175.324219 149.125 " clip-rule="nonzero"/></clipPath></defs><g fill="#149adf" fill-opacity="1"><g transform="translate(120.308983, 250.933162)"><g><path d="M 4.921875 -2.71875 C 3.921875 -3.695312 3.125 -4.878906 2.53125 -6.265625 C 1.945312 -7.660156 1.65625 -9.175781 1.65625 -10.8125 C 1.65625 -12.457031 1.929688 -13.929688 2.484375 -15.234375 C 3.046875 -16.546875 3.820312 -17.679688 4.8125 -18.640625 C 6.9375 -20.671875 9.597656 -21.6875 12.796875 -21.6875 C 15.972656 -21.6875 18.570312 -20.679688 20.59375 -18.671875 C 22.65625 -16.640625 23.6875 -14 23.6875 -10.75 C 23.6875 -7.507812 22.632812 -4.84375 20.53125 -2.75 C 19.207031 -1.457031 17.582031 -0.566406 15.65625 -0.078125 C 14.695312 0.160156 13.582031 0.28125 12.3125 0.28125 C 11.050781 0.28125 9.753906 0.0234375 8.421875 -0.484375 C 7.085938 -1.003906 5.921875 -1.75 4.921875 -2.71875 Z M 12.78125 -20.59375 C 12.21875 -20.59375 11.695312 -20.550781 11.21875 -20.46875 L 11.21875 -0.9375 C 11.675781 -0.851562 12.195312 -0.8125 12.78125 -0.8125 C 15.46875 -0.8125 17.738281 -1.710938 19.59375 -3.515625 C 21.519531 -5.378906 22.484375 -7.789062 22.484375 -10.75 C 22.484375 -13.5625 21.578125 -15.898438 19.765625 -17.765625 C 17.941406 -19.648438 15.613281 -20.59375 12.78125 -20.59375 Z M 12.78125 -20.59375 "/></g></g></g><g fill="#149adf" fill-opacity="1"><g transform="translate(145.3208, 250.933162)"><g><path d="M 12.703125 -6.28125 L 14.046875 -6.21875 C 16.003906 -6.21875 17.617188 -6.863281 18.890625 -8.15625 C 20.179688 -9.457031 20.859375 -11.144531 20.921875 -13.21875 C 21.023438 -16.40625 19.488281 -18.554688 16.3125 -19.671875 C 15.125 -20.097656 13.578125 -20.3125 11.671875 -20.3125 L 10.40625 -20.3125 L 10.40625 0 L 2.671875 0 L 2.671875 -21.421875 L 8.484375 -21.421875 C 11.609375 -21.421875 13.492188 -21.375 14.140625 -21.28125 C 14.785156 -21.1875 15.457031 -21.066406 16.15625 -20.921875 C 16.851562 -20.785156 17.609375 -20.476562 18.421875 -20 C 19.234375 -19.53125 19.925781 -18.96875 20.5 -18.3125 C 21.632812 -16.976562 22.179688 -15.414062 22.140625 -13.625 C 22.078125 -11.332031 21.40625 -9.425781 20.125 -7.90625 C 18.820312 -6.363281 17.03125 -5.414062 14.75 -5.0625 C 14.082031 -4.96875 13.554688 -4.921875 13.171875 -4.921875 C 12.265625 -4.921875 11.8125 -5.164062 11.8125 -5.65625 C 11.8125 -5.84375 11.890625 -5.992188 12.046875 -6.109375 C 12.210938 -6.222656 12.429688 -6.28125 12.703125 -6.28125 Z M 12.703125 -6.28125 "/></g></g></g><g fill="#149adf" fill-opacity="1"><g transform="translate(167.971468, 250.933162)"><g><path d="M 2.671875 -1.09375 C 2.328125 -1.289062 2.023438 -1.5 1.765625 -1.71875 C 1.503906 -1.945312 1.375 -2.1875 1.375 -2.4375 C 1.375 -2.914062 1.582031 -3.15625 2 -3.15625 C 2.269531 -3.15625 2.570312 -3.003906 2.90625 -2.703125 C 3.238281 -2.398438 3.609375 -2.132812 4.015625 -1.90625 C 4.429688 -1.6875 4.882812 -1.492188 5.375 -1.328125 C 6.375 -0.992188 7.296875 -0.828125 8.140625 -0.828125 C 8.992188 -0.828125 9.648438 -0.882812 10.109375 -1 C 10.566406 -1.113281 10.953125 -1.265625 11.265625 -1.453125 C 11.929688 -1.867188 12.265625 -2.398438 12.265625 -3.046875 C 12.265625 -3.640625 11.972656 -4.238281 11.390625 -4.84375 C 10.910156 -5.351562 10.226562 -5.96875 9.34375 -6.6875 L 6.75 -8.71875 C 4.15625 -10.71875 2.628906 -12.546875 2.171875 -14.203125 C 2.003906 -14.773438 1.921875 -15.414062 1.921875 -16.125 C 1.921875 -16.832031 2.078125 -17.523438 2.390625 -18.203125 C 2.710938 -18.890625 3.1875 -19.492188 3.8125 -20.015625 C 5.15625 -21.128906 6.984375 -21.6875 9.296875 -21.6875 C 10.472656 -21.6875 11.53125 -21.507812 12.46875 -21.15625 C 13.40625 -20.8125 14.046875 -20.503906 14.390625 -20.234375 C 14.734375 -19.960938 14.90625 -19.71875 14.90625 -19.5 C 14.90625 -19.03125 14.710938 -18.796875 14.328125 -18.796875 C 14.109375 -18.796875 13.875 -18.90625 13.625 -19.125 C 13.375 -19.351562 13.09375 -19.550781 12.78125 -19.71875 C 12.476562 -19.882812 12.128906 -20.03125 11.734375 -20.15625 C 10.878906 -20.445312 10.046875 -20.59375 9.234375 -20.59375 C 7.734375 -20.59375 6.984375 -20.097656 6.984375 -19.109375 C 6.984375 -18.691406 7.117188 -18.304688 7.390625 -17.953125 C 7.867188 -17.335938 8.8125 -16.457031 10.21875 -15.3125 C 11.632812 -14.164062 12.765625 -13.160156 13.609375 -12.296875 C 14.460938 -11.441406 15.113281 -10.671875 15.5625 -9.984375 C 16.269531 -8.910156 16.625 -7.789062 16.625 -6.625 C 16.625 -5.457031 16.414062 -4.46875 16 -3.65625 C 15.59375 -2.84375 15.023438 -2.144531 14.296875 -1.5625 C 12.734375 -0.332031 10.800781 0.28125 8.5 0.28125 C 6.207031 0.28125 4.265625 -0.175781 2.671875 -1.09375 Z M 2.671875 -1.09375 "/></g></g></g><g fill="#2f449d" fill-opacity="1"><g transform="translate(185.655555, 250.486585)"><g><path d="M 19.257812 -21.855469 L 16.816406 -21.855469 C 16.605469 -21.855469 16.101562 -21.75 16.101562 -20.929688 L 16.101562 -12.996094 L 6.046875 -12.996094 L 6.046875 -20.929688 C 6.046875 -21.75 5.542969 -21.855469 5.304688 -21.855469 L 2.890625 -21.855469 C 2.652344 -21.855469 2.121094 -21.75 2.121094 -20.929688 L 2.121094 -0.902344 C 2.121094 -0.078125 2.652344 0.0273438 2.890625 0.0273438 L 5.304688 0.0273438 C 5.542969 0.0273438 6.046875 -0.078125 6.046875 -0.902344 L 6.046875 -9.070312 L 16.101562 -9.070312 L 16.101562 -0.902344 C 16.101562 -0.078125 16.605469 0.0273438 16.816406 0.0273438 L 19.257812 0.0273438 C 19.496094 0.0273438 20.027344 -0.078125 20.027344 -0.902344 L 20.027344 -20.929688 C 20.027344 -21.75 19.496094 -21.855469 19.257812 -21.855469 Z M 19.257812 -21.855469 "/></g></g></g><g fill="#2f449d" fill-opacity="1"><g transform="translate(208.864473, 250.486585)"><g><path d="M 5.304688 -21.855469 L 2.863281 -21.855469 C 2.652344 -21.855469 2.121094 -21.75 2.121094 -20.929688 L 2.121094 -0.902344 C 2.121094 -0.078125 2.652344 0.0273438 2.863281 0.0273438 L 5.304688 0.0273438 C 5.515625 0.0273438 6.046875 -0.078125 6.046875 -0.902344 L 6.046875 -20.929688 C 6.046875 -21.75 5.515625 -21.855469 5.304688 -21.855469 Z M 5.304688 -21.855469 "/></g></g></g><g fill="#2f449d" fill-opacity="1"><g transform="translate(218.094948, 250.486585)"><g><path d="M 23.261719 -22.148438 L 20.34375 -22.148438 C 20 -22.148438 19.734375 -21.964844 19.574219 -21.59375 L 13.078125 -5.171875 C 13.078125 -5.121094 13.050781 -5.121094 13.050781 -5.121094 L 12.945312 -5.09375 C 12.945312 -5.09375 12.945312 -5.121094 12.917969 -5.171875 L 6.3125 -21.59375 C 6.207031 -21.964844 5.941406 -22.148438 5.570312 -22.148438 L 2.707031 -22.148438 C 2.308594 -22.148438 2.175781 -21.882812 2.148438 -21.777344 C 2.09375 -21.59375 2.121094 -21.378906 2.226562 -21.113281 L 9.65625 -2.757812 C 9.734375 -2.597656 9.789062 -2.46875 9.839844 -2.359375 C 10.238281 -0.953125 11.539062 0.0273438 12.996094 0.0273438 C 13.660156 0.0273438 14.296875 -0.1875 14.828125 -0.558594 C 14.988281 -0.636719 15.121094 -0.714844 15.226562 -0.824219 C 15.625 -1.167969 15.996094 -1.804688 16.394531 -2.757812 L 23.765625 -21.113281 C 23.875 -21.378906 23.898438 -21.59375 23.847656 -21.777344 C 23.792969 -21.910156 23.660156 -22.148438 23.261719 -22.148438 Z M 23.261719 -22.148438 "/></g></g></g><g fill="#2f449d" fill-opacity="1"><g transform="translate(245.149941, 250.486585)"><g><path d="M 18.0625 -4.75 L 8.726562 -4.75 C 8.171875 -4.75 7.71875 -4.828125 7.347656 -4.933594 C 7.003906 -5.066406 6.765625 -5.253906 6.550781 -5.515625 C 6.339844 -5.808594 6.179688 -6.207031 6.101562 -6.710938 C 6.074219 -6.84375 6.074219 -7.03125 6.046875 -7.160156 C 6.046875 -7.160156 6.074219 -9.070312 6.101562 -9.070312 L 17.957031 -9.070312 C 18.171875 -9.070312 18.699219 -9.179688 18.699219 -10 L 18.699219 -12.097656 C 18.699219 -12.917969 18.171875 -12.996094 17.957031 -12.996094 L 4.269531 -12.972656 C 3.5 -12.917969 2.839844 -12.519531 2.46875 -11.855469 C 2.335938 -11.644531 2.226562 -11.433594 2.175781 -11.195312 L 2.121094 -7.851562 L 2.121094 -7.71875 C 2.148438 -6.472656 2.28125 -5.410156 2.46875 -4.535156 C 2.707031 -3.476562 3.105469 -2.597656 3.609375 -1.9375 C 4.136719 -1.246094 4.828125 -0.769531 5.675781 -0.476562 C 6.5 -0.160156 7.480469 -0.0273438 8.648438 -0.0273438 L 18.0625 -0.0273438 C 18.304688 -0.0273438 18.832031 -0.105469 18.832031 -0.929688 L 18.832031 -3.847656 C 18.832031 -4.667969 18.304688 -4.75 18.0625 -4.75 Z M 18.089844 -21.910156 L 2.839844 -21.910156 C 2.625 -21.910156 2.121094 -21.804688 2.121094 -20.957031 L 2.121094 -18.886719 C 2.121094 -18.0625 2.625 -17.984375 2.839844 -17.984375 L 18.089844 -17.957031 C 18.304688 -17.957031 18.832031 -18.0625 18.832031 -18.886719 L 18.832031 -20.980469 C 18.832031 -21.804688 18.304688 -21.910156 18.089844 -21.910156 Z M 18.089844 -21.910156 "/></g></g></g><g clip-path="url(#aeb37c1038)"><g clip-path="url(#955d0378f1)"><g clip-path="url(#a13e0e6cbf)"><g clip-path="url(#1027816315)"><path fill="url(#63c4fd3f1e)" d="M 303.429688 145.421875 L 148.589844 44.300781 L 55.585938 186.308594 L 210.425781 287.425781 Z M 303.429688 145.421875 " fill-rule="nonzero"/></g></g></g></g><g clip-path="url(#3d5bf041b0)"><g clip-path="url(#5717c7444f)"><g clip-path="url(#b1557d429b)"><g clip-path="url(#ef7f1627ae)"><path fill="url(#92f720e539)" d="M 307.070312 158.238281 L 165.230469 65.609375 L 84.746094 188.507812 L 226.585938 281.136719 Z M 307.070312 158.238281 " fill-rule="nonzero"/></g></g></g></g><g clip-path="url(#6f48784b80)"><g clip-path="url(#1637280aae)"><path fill="#2f419a" d="M 137.480469 183.296875 L 137.480469 170.183594 L 148.847656 170.183594 L 148.847656 183.296875 Z M 137.480469 183.296875 " fill-opacity="1" fill-rule="nonzero"/></g></g><g clip-path="url(#06e4bb59a2)"><g clip-path="url(#8b835efb58)"><path fill="#149adf" d="M 131 172.613281 L 131 159.5 L 142.363281 159.5 L 142.363281 172.613281 Z M 131 172.613281 " fill-opacity="1" fill-rule="nonzero"/></g></g><g clip-path="url(#b3bdbae6dd)"><g clip-path="url(#88b2b7d81b)"><path fill="#149adf" d="M 143.164062 172.613281 L 143.164062 159.5 L 154.53125 159.5 L 154.53125 172.613281 Z M 143.164062 172.613281 " fill-opacity="1" fill-rule="nonzero"/></g></g><path fill="#149adf" d="M 231.304688 178.769531 L 233.074219 178.769531 L 233.074219 180.546875 L 231.304688 180.546875 Z M 231.304688 178.769531 " fill-opacity="1" fill-rule="evenodd"/><path fill="#2f419a" d="M 233.035156 181.15625 L 234.390625 181.15625 L 234.390625 182.519531 L 233.035156 182.519531 Z M 233.035156 181.15625 " fill-opacity="1" fill-rule="evenodd"/><path fill="#149adf" d="M 234.449219 179.242188 L 235.546875 179.242188 L 235.546875 180.347656 L 234.449219 180.347656 Z M 234.449219 179.242188 " fill-opacity="1" fill-rule="evenodd"/><g clip-path="url(#c3eab3a860)"><path fill="#2f419a" d="M 236.324219 179.3125 L 236.851562 179.3125 L 236.851562 179.84375 L 236.324219 179.84375 Z M 236.324219 179.3125 " fill-opacity="1" fill-rule="evenodd"/></g><g clip-path="url(#847f7ef20d)"><path fill="#2f419a" d="M 235.378906 177.902344 L 236.027344 177.902344 L 236.027344 178.550781 L 235.378906 178.550781 Z M 235.378906 177.902344 " fill-opacity="1" fill-rule="evenodd"/></g><g clip-path="url(#2feedd2bce)"><path fill="#149adf" d="M 234.585938 176.609375 L 235.113281 176.609375 L 235.113281 177.140625 L 234.585938 177.140625 Z M 234.585938 176.609375 " fill-opacity="1" fill-rule="evenodd"/></g><g clip-path="url(#96dd10c546)"><path fill="#149adf" d="M 236.058594 176.667969 L 236.253906 176.667969 L 236.253906 176.863281 L 236.058594 176.863281 Z M 236.058594 176.667969 " fill-opacity="1" fill-rule="evenodd"/></g><path fill="#2f419a" d="M 227.4375 182.457031 C 227.4375 181.597656 226.742188 180.898438 225.886719 180.898438 L 225.886719 178.242188 C 224.511719 179.453125 222.871094 180.320312 221.09375 180.753906 C 221.1875 182.621094 221.683594 184.535156 222.664062 186.128906 C 223.40625 187.335938 224.503906 188.457031 225.886719 188.867188 L 225.886719 185.640625 L 227.609375 185.640625 L 226.859375 183.671875 C 227.222656 183.378906 227.4375 182.9375 227.4375 182.457031 Z M 225.371094 183.523438 C 224.976562 183.328125 224.707031 182.925781 224.707031 182.457031 C 224.707031 181.804688 225.234375 181.273438 225.886719 181.273438 C 226.535156 181.273438 227.066406 181.804688 227.066406 182.457031 C 227.066406 182.925781 226.792969 183.328125 226.402344 183.523438 L 226.476562 183.714844 L 227.066406 185.265625 L 224.707031 185.265625 L 225.296875 183.714844 Z M 225.371094 183.523438 " fill-opacity="1" fill-rule="evenodd"/><g clip-path="url(#cbe9315e86)"><path fill="#149adf" d="M 225.886719 177.734375 C 227.167969 178.933594 228.703125 179.8125 230.382812 180.285156 L 230.382812 181.472656 L 231 181.472656 C 230.820312 183.179688 230.316406 184.878906 229.425781 186.328125 C 228.617188 187.648438 227.410156 188.847656 225.886719 189.257812 C 224.363281 188.847656 223.15625 187.648438 222.34375 186.328125 C 221.277344 184.589844 220.761719 182.492188 220.707031 180.453125 C 222.652344 180.042969 224.433594 179.09375 225.886719 177.734375 Z M 230.835938 180.402344 L 230.835938 179.265625 C 228.898438 178.753906 227.1875 177.648438 225.886719 176.144531 C 224.296875 177.984375 222.09375 179.226562 219.613281 179.515625 C 219.605469 179.699219 219.601562 179.882812 219.601562 180.070312 C 219.601562 185.300781 222.328125 189.632812 225.886719 190.394531 C 229.226562 189.679688 231.832031 185.816406 232.140625 181.019531 L 230.835938 181.019531 Z M 230.835938 180.402344 " fill-opacity="1" fill-rule="evenodd"/></g><g clip-path="url(#79466e73a5)"><g clip-path="url(#7e74c5d6e6)"><path fill="#2f419a" d="M 181.007812 128.601562 L 181.007812 141.714844 L 169.640625 141.714844 L 169.640625 128.601562 Z M 181.007812 128.601562 " fill-opacity="1" fill-rule="nonzero"/></g></g><g clip-path="url(#11d5d2400b)"><g clip-path="url(#bd0193cbef)"><path fill="#149adf" d="M 187.488281 139.28125 L 187.488281 152.394531 L 176.121094 152.394531 L 176.121094 139.28125 Z M 187.488281 139.28125 " fill-opacity="1" fill-rule="nonzero"/></g></g><g clip-path="url(#588a488f0e)"><g clip-path="url(#38e1f337f7)"><path fill="#149adf" d="M 175.324219 139.28125 L 175.324219 152.394531 L 163.957031 152.394531 L 163.957031 139.28125 Z M 175.324219 139.28125 " fill-opacity="1" fill-rule="nonzero"/></g></g></svg>